<?xml version="1.0" encoding="UTF-8"?>
<svg version="1.1" xmlns="http://www.w3.org/2000/svg" width="1254" height="1254">
<path d="M0 0 C1.20040067 -0.00175304 2.40080135 -0.00350607 3.6375778 -0.00531223 C6.94376418 -0.00913915 10.24989434 -0.00855538 13.55607824 -0.00603446 C17.16294609 -0.00439038 20.76980825 -0.00855132 24.37667423 -0.01194364 C30.68998406 -0.01708145 37.00328623 -0.01851766 43.31659794 -0.01748753 C52.70534962 -0.01595934 62.09409286 -0.02013158 71.4828429 -0.02536215 C89.23017928 -0.03502339 106.97751278 -0.03784595 124.72485148 -0.03841921 C138.43430847 -0.03887914 152.14376432 -0.04093953 165.85322094 -0.04411983 C169.80269291 -0.04501741 173.75216488 -0.04590723 177.70163685 -0.04679471 C179.17451647 -0.04712628 179.17451647 -0.04712628 180.67715124 -0.04746456 C208.29033939 -0.05361724 235.90352714 -0.05756528 263.516716 -0.05712128 C264.55740233 -0.0571057 265.59808866 -0.05709012 266.67031094 -0.05707407 C271.94465881 -0.05699096 277.21900668 -0.05689192 282.49335455 -0.05678936 C283.5408132 -0.05676942 284.58827184 -0.05674947 285.66747166 -0.05672892 C287.78568862 -0.05668848 289.90390559 -0.05664669 292.02212255 -0.05660353 C324.96630899 -0.05599099 357.91048513 -0.06349395 390.85466862 -0.07717609 C427.88893639 -0.09255066 464.9231974 -0.10114147 501.95746857 -0.10021287 C505.90976973 -0.10013824 509.8620709 -0.10008954 513.81437206 -0.10005856 C514.78748849 -0.1000469 515.76060492 -0.10003525 516.76320972 -0.10002324 C532.39515803 -0.09999252 548.02709737 -0.10636718 563.65904301 -0.11499082 C579.38219312 -0.1234851 595.10533017 -0.1244434 610.82848131 -0.1178815 C620.15765527 -0.11419756 629.48678944 -0.1159835 638.81595916 -0.12582384 C645.06214417 -0.131853 651.30830056 -0.13049599 657.5544843 -0.12335334 C661.10376867 -0.11949642 664.65297642 -0.11862406 668.20225518 -0.12681069 C713.62235886 -0.21110509 754.37598157 6.95674393 792.43596745 33.12863445 C793.41823307 33.80281414 794.4004987 34.47699383 795.41252995 35.1716032 C834.1179816 62.97484543 860.52860918 105.77040431 870.43596745 152.12863445 C871.1719801 156.77801107 871.67773309 161.43037062 872.1200304 166.11608505 C872.30754559 168.06413635 872.30754559 168.06413635 872.49884896 170.05154223 C873.77098503 183.94917842 873.84841456 197.820552 873.80346012 211.76692486 C873.80381887 214.62193663 873.80871388 217.47693695 873.8133657 220.33194453 C873.82103151 226.47825896 873.81784361 232.62448813 873.80704212 238.77079678 C873.79102253 247.91226472 873.79255318 257.05367463 873.79733441 266.1951524 C873.8048849 281.59342889 873.79847134 296.99166927 873.78372288 312.38993931 C873.76912889 327.64634706 873.76043237 342.90273898 873.7595377 358.15915394 C873.7594766 359.11239555 873.75941551 360.06563717 873.75935256 361.04776489 C873.759123 364.91847861 873.75893584 368.78919233 873.75880442 372.65990606 C873.75759531 407.87955444 873.74194434 443.09918088 873.71721745 478.31882 C873.69396023 511.45326183 873.67975465 544.58769037 873.67620182 577.72214031 C873.67603455 579.25157787 873.67603455 579.25157787 873.6758639 580.81191317 C873.67541498 584.92323058 873.67497299 589.034548 873.67453147 593.14586541 C873.67431107 595.19541155 873.67408978 597.2449577 873.67386759 599.29450384 C873.67364622 601.33949594 873.67342745 603.38448803 873.67321129 605.42948013 C873.66968012 638.14945397 873.65821679 670.86942537 873.64540495 703.58939673 C873.64170467 713.13035646 873.63843517 722.67131603 873.63615608 732.21227622 C873.63131841 752.26862217 873.62408594 772.32496021 873.60800841 792.38130074 C873.60143679 800.66459791 873.59625782 808.94788883 873.59554768 817.23118877 C873.58866 874.16855388 873.58866 874.16855388 873.1616939 899.52592421 C873.13051244 901.4308943 873.10319805 903.33593343 873.08058968 905.24102455 C872.59237648 943.95177464 862.93819391 981.71700486 839.43596745 1013.12863445 C838.92034245 1013.9072282 838.40471745 1014.68582195 837.87346745 1015.48800945 C833.90992541 1021.47143349 829.36700279 1026.65081833 824.43523502 1031.83883953 C821.60330226 1034.73840361 821.60330226 1034.73840361 819.43596745 1038.12863445 C818.77596745 1038.12863445 818.11596745 1038.12863445 817.43596745 1038.12863445 C817.1806525 1038.71950848 816.92533756 1039.3103825 816.6622858 1039.9191618 C815.31131546 1042.35322145 813.9354998 1043.6901507 811.8148737 1045.48019695 C811.09960514 1046.08508953 810.38433659 1046.68998211 809.64739323 1047.31320477 C789.08133157 1064.19653823 767.13993678 1077.60483929 741.43596745 1085.12863445 C740.26163151 1085.48570477 739.08729557 1085.84277508 737.8773737 1086.2106657 C730.76213271 1088.25562732 723.68511684 1089.69831511 716.37346745 1090.81613445 C715.59527653 1090.93553387 714.81708561 1091.05493328 714.01531315 1091.17795086 C702.64145757 1092.80094192 691.21326795 1093.27889224 679.736063 1093.25726891 C678.53311971 1093.25902194 677.33017641 1093.26077498 676.09078029 1093.26258114 C672.78211813 1093.26640396 669.47351226 1093.26582636 666.16485261 1093.26330337 C662.55354787 1093.26165765 658.94224879 1093.26582156 655.33094591 1093.26921254 C649.01136679 1093.27434774 642.69179532 1093.27578702 636.37221432 1093.27475643 C626.97410283 1093.27322757 617.57599977 1093.27740198 608.17788992 1093.28263106 C590.41251687 1093.2922898 572.6471467 1093.29511476 554.88177133 1093.29568812 C541.1580448 1093.29614813 527.43431939 1093.29820894 513.71059322 1093.30138874 C509.75634446 1093.30228632 505.80209569 1093.30317614 501.84784693 1093.30406362 C500.86472737 1093.30428467 499.88160782 1093.30450571 498.86869677 1093.30473346 C471.22371404 1093.31088571 443.57873169 1093.31483423 415.93374825 1093.31439018 C414.89197029 1093.3143746 413.85019233 1093.31435903 412.77684535 1093.31434297 C407.49701972 1093.31425987 402.21719409 1093.31416083 396.93736846 1093.31405827 C395.36456139 1093.31402835 395.36456139 1093.31402835 393.75998044 1093.31399783 C391.63958098 1093.31395739 389.51918153 1093.31391559 387.39878208 1093.31387244 C354.42085703 1093.3132599 321.44294228 1093.32076297 288.46502018 1093.334445 C251.38898481 1093.34982105 214.3129562 1093.35841029 177.23691744 1093.35748178 C173.27983948 1093.35740715 169.32276152 1093.35735844 165.36568356 1093.35732746 C163.90425507 1093.35730998 163.90425507 1093.35730998 162.41330278 1093.35729215 C146.76579977 1093.35726143 131.11830571 1093.36363478 115.47080536 1093.37225973 C99.73095689 1093.38075583 83.99112147 1093.38171088 68.25127197 1093.3751504 C58.91341603 1093.3714677 49.57559985 1093.37324866 40.23774815 1093.38309274 C33.98453505 1093.38912511 27.73135052 1093.3877614 21.47813869 1093.38062225 C17.92567806 1093.37676799 14.37329395 1093.37588502 10.82083894 1093.3840796 C-36.84956579 1093.47253768 -81.46375823 1086.1620471 -120.56403255 1057.12863445 C-121.13702084 1056.70372723 -121.71000912 1056.27882 -122.30036068 1055.8410368 C-134.01379539 1047.11382076 -134.01379539 1047.11382076 -138.56403255 1042.12863445 C-138.56403255 1041.46863445 -138.56403255 1040.80863445 -138.56403255 1040.12863445 C-139.10672787 1039.91980633 -139.64942318 1039.7109782 -140.2085638 1039.49582195 C-143.45403028 1037.61205202 -145.75908818 1035.00848337 -148.25153255 1032.25363445 C-149.0416473 1031.38786785 -149.0416473 1031.38786785 -149.84772396 1030.50461102 C-154.81358694 1024.98631647 -159.27444419 1019.19056772 -163.56403255 1013.12863445 C-164.39354427 1011.97621258 -164.39354427 1011.97621258 -165.2398138 1010.80050945 C-168.63162793 1005.92751552 -171.33307811 1000.84498269 -173.92340755 995.5075407 C-175.12002172 993.04308534 -176.33577454 990.59630801 -177.57965755 988.1559782 C-185.34427239 972.90598643 -190.61464497 957.92834153 -193.75153255 941.06613445 C-194.00193295 939.73823895 -194.00193295 939.73823895 -194.25739193 938.38351727 C-196.53306594 925.60509263 -196.71007264 912.80328584 -196.6910162 899.86548138 C-196.69217286 898.14364118 -196.69376484 896.42180123 -196.69574988 894.69996178 C-196.6999121 889.98919096 -196.69787566 885.27844056 -196.6947667 880.56766969 C-196.6924757 875.45533387 -196.69593807 870.34300134 -196.69863415 865.23066616 C-196.70301722 855.15559959 -196.70197292 845.08054036 -196.69913661 835.00547352 C-196.69694565 826.70759938 -196.69702086 818.40972786 -196.69860363 810.1118536 C-196.69883037 808.9201784 -196.69905712 807.7285032 -196.69929073 806.50071663 C-196.69976155 804.07431423 -196.70023644 801.64791182 -196.70071532 799.22150941 C-196.70594086 770.89365995 -196.70027012 742.565816 -196.69228601 714.23796763 C-196.68968331 704.94394986 -196.68752338 695.64993206 -196.68562984 686.35591412 C-196.67044684 612.38881983 -196.6325183 538.42175731 -196.57231408 464.45468608 C-196.5660154 456.68440675 -196.56006537 448.91412723 -196.55434322 441.14384747 C-196.52301479 398.74302234 -196.48263009 356.34227837 -196.37691593 313.94156361 C-196.37505432 313.1936936 -196.3731927 312.44582358 -196.37127467 311.67529085 C-196.36942099 310.9311823 -196.3675673 310.18707376 -196.36565745 309.42041647 C-196.36381334 308.67998735 -196.36196922 307.93955822 -196.36006923 307.17669185 C-196.35636519 305.69205525 -196.3526453 304.20741869 -196.3489093 302.72278218 C-196.32164634 291.81170269 -196.30470385 280.90064234 -196.29358578 269.98953533 C-196.2811682 257.84427504 -196.25472998 245.69916411 -196.20962012 233.55397141 C-196.18759347 227.55604739 -196.17106439 221.55827771 -196.17211437 215.56030941 C-196.17111672 154.71606067 -184.74151863 102.5451579 -141.56403255 57.12863445 C-141.05034115 56.58626141 -140.53664974 56.04388836 -140.00739193 55.48507977 C-103.31725904 17.00794287 -52.43909436 -0.09867815 0 0 Z " fill="#B9161F" transform="translate(285.56403255462646,75.87136554718018)"/>
<path d="M0 0 C3.44846346 2.11976317 6.17268567 4.34537133 8 8 C8.09571771 9.73482108 8.12672323 11.47335626 8.1276505 13.21081567 C8.13066647 14.32467123 8.13368244 15.4385268 8.1367898 16.58613557 C8.13502033 17.82253417 8.13325086 19.05893278 8.13142776 20.332798 C8.13450672 22.29629758 8.13450672 22.29629758 8.13764787 24.29946381 C8.14323961 27.96138591 8.14253754 31.62328473 8.14087028 35.28520975 C8.14014196 39.25835703 8.14515556 43.2314976 8.1494453 47.20464206 C8.15704284 55.09769487 8.15921924 62.99074093 8.15977435 70.88379702 C8.16068626 80.33273758 8.16734865 89.78167184 8.17412117 99.2306097 C8.19020121 122.07157205 8.19608664 144.91253376 8.20086992 167.75350076 C8.20320378 178.55298181 8.20680618 189.35246233 8.2105653 200.15194297 C8.22340232 237.09987689 8.23412159 274.04781051 8.2375679 310.99574661 C8.23778954 313.31627096 8.23801132 315.63679531 8.23823325 317.95731966 C8.2384539 320.28353758 8.23867438 322.60975549 8.2388947 324.93597341 C8.23933726 329.60298618 8.23978437 334.26999895 8.24023438 338.93701172 C8.24034377 340.09416448 8.24045316 341.25131724 8.24056586 342.44353523 C8.24419773 379.97714167 8.26012189 417.5107288 8.28342474 455.04432784 C8.30800121 494.70164278 8.32173972 534.35894667 8.32293582 574.01626945 C8.32310728 578.36669906 8.32332271 582.71712868 8.32357025 587.06755829 C8.32362602 588.13880237 8.32368179 589.21004646 8.32373925 590.31375248 C8.32489158 607.57946765 8.33592902 624.84516308 8.35045731 642.11087157 C8.36479861 659.45379019 8.36807271 676.79668341 8.36001733 694.13960633 C8.35554991 704.45191161 8.35946593 714.76413507 8.37525584 725.07642966 C8.38497008 731.95790885 8.38386178 738.83933041 8.37381961 745.72080902 C8.36840177 749.64628587 8.36779982 753.57160505 8.38032833 757.49706915 C8.39369255 761.7194481 8.38401526 765.94145482 8.3719368 770.16383743 C8.37953199 771.39087137 8.38712718 772.61790531 8.39495254 773.8821221 C8.350503 781.02055234 7.81276578 785.74773957 3 791.3125 C-0.73298386 794.46220513 -4.56954345 794.31947011 -9.23498535 794.2635498 C-13.9703672 793.81219272 -18.06224943 792.08800755 -22.421875 790.265625 C-23.39260452 789.87612167 -24.36333405 789.48661835 -25.36347961 789.08531189 C-28.49907439 787.82288454 -31.62431944 786.53675319 -34.75 785.25 C-36.91396863 784.37376643 -39.07860576 783.49918208 -41.24389648 782.6262207 C-45.53126193 780.89508531 -49.81488826 779.15520385 -54.09521484 777.40673828 C-59.15489186 775.34110197 -64.22341737 773.29907612 -69.30078125 771.27734375 C-69.98254425 771.00586517 -70.66430725 770.7343866 -71.36672974 770.4546814 C-72.02140228 770.19409943 -72.67607483 769.93351746 -73.35058594 769.66503906 C-76.78924404 768.2962704 -80.22531902 766.92129254 -83.66015625 765.54296875 C-84.68318848 765.13264404 -85.7062207 764.72231934 -86.76025391 764.29956055 C-88.45916835 763.61807437 -90.15807219 762.93656173 -91.85687256 762.25479126 C-100.12451336 758.93762424 -108.40433011 755.65740118 -116.71875 752.45898438 C-117.8015625 752.04036133 -117.8015625 752.04036133 -118.90625 751.61328125 C-119.9430188 751.21435669 -119.9430188 751.21435669 -121.00073242 750.80737305 C-122.91891804 750.03274369 -124.773033 749.16911687 -126.64453125 748.2890625 C-136.22343434 744.60915794 -148.71544279 748.78179817 -158.45703125 750.8671875 C-162.84721522 751.79172734 -167.25552142 752.58286378 -171.67553711 753.34863281 C-180.19369549 754.83929716 -188.68922541 756.4370638 -197.18201447 758.06534195 C-200.79219285 758.75749524 -204.40288825 759.44693588 -208.01353073 760.13666344 C-209.96208712 760.5089303 -211.91061625 760.88133989 -213.85911942 761.25388527 C-224.46031599 763.28052411 -235.06387843 765.29467986 -245.66740417 767.30908966 C-252.43227971 768.59453902 -259.19686312 769.88152479 -265.96147919 771.16833878 C-271.70188407 772.26024754 -277.44238844 773.35162798 -283.18310547 774.44189453 C-289.98173556 775.73317704 -296.78008419 777.02593121 -303.578125 778.3203125 C-305.20907356 778.63083935 -305.20907356 778.63083935 -306.87297058 778.94763947 C-320.85761547 781.61247492 -334.82732939 784.33875568 -348.78137207 787.15927124 C-355.90704067 788.59565574 -363.0366925 789.924974 -370.20117188 791.15429688 C-376.96456187 792.32952517 -383.70735063 793.61894814 -390.453125 794.890625 C-391.51297041 795.09035447 -391.51297041 795.09035447 -392.59422684 795.29411888 C-397.04579926 796.13330311 -401.49707796 796.97403721 -405.94828033 797.81518173 C-409.82328984 798.54721046 -413.69852492 799.27804314 -417.57373047 800.0090332 C-430.50560531 802.44881448 -443.43677017 804.89234938 -456.3671875 807.33984375 C-457.23867432 807.5047934 -458.11016113 807.66974304 -459.00805664 807.83969116 C-462.79882561 808.55732466 -466.58948248 809.2755391 -470.37988281 809.99511719 C-472.29945801 810.35911621 -472.29945801 810.35911621 -474.2578125 810.73046875 C-475.3111377 810.93051514 -476.36446289 811.13056152 -477.44970703 811.33666992 C-478.62130371 811.55556885 -479.79290039 811.77446777 -481 812 C-481.75031998 812.1705188 -482.50063995 812.3410376 -483.2736969 812.51672363 C-491.78393286 814.32097789 -500.17660059 814.2553183 -508.82421875 814.1953125 C-510.42275311 814.191574 -512.02128978 814.18873099 -513.61982727 814.18673706 C-517.79054288 814.17916641 -521.9611152 814.15957583 -526.1317749 814.1373291 C-530.40228335 814.11672769 -534.67281536 814.10770503 -538.94335938 814.09765625 C-547.29563806 814.07632252 -555.64780112 814.04226778 -564 814 C-557.78472059 806.61524975 -557.78472059 806.61524975 -554.37890625 803.5 C-553.75306641 802.9225 -553.12722656 802.345 -552.48242188 801.75 C-551.84884766 801.1725 -551.21527344 800.595 -550.5625 800 C-546.12262995 795.92822562 -541.77514471 791.80125572 -537.53393555 787.52246094 C-535.7996795 785.801178 -533.99571369 784.1963995 -532.125 782.625 C-530.74675408 781.42037033 -529.37190338 780.21184799 -528 779 C-527.24203125 778.33355469 -526.4840625 777.66710937 -525.703125 776.98046875 C-519.68594455 771.37722186 -516.20992211 765.53542371 -513 758 C-512.65058775 757.22357781 -512.3011755 756.44715561 -511.94117501 755.64720547 C-510.94845227 752.85501377 -510.74993076 750.79966426 -510.74979365 747.84783745 C-510.74489055 746.82363911 -510.73998744 745.79944078 -510.73493576 744.74420613 C-510.74212537 743.06326138 -510.74212537 743.06326138 -510.74946022 741.34835815 C-510.74526371 739.54996104 -510.74526371 739.54996104 -510.74098241 737.71523267 C-510.73520744 734.37587145 -510.73841966 731.03673377 -510.74533385 727.69738887 C-510.75063778 724.06866037 -510.74432509 720.43994954 -510.73944318 716.81122303 C-510.7324703 710.4473922 -510.73287088 704.08359485 -510.73804665 697.7197628 C-510.7456838 688.25624715 -510.74183354 678.79276092 -510.73542418 669.32924559 C-510.72488693 653.40775738 -510.72306894 637.48627977 -510.72560501 621.56478882 C-510.72901964 598.8149454 -510.71566788 576.06512861 -510.69883054 553.31529234 C-510.6921492 544.18801396 -510.68601054 535.06073519 -510.67987633 525.93345642 C-510.67885033 524.4123031 -510.67885033 524.4123031 -510.67780361 522.8604194 C-510.66161998 498.71342587 -510.65078848 474.5664307 -510.64160156 450.41943359 C-510.64099251 448.83433984 -510.64099251 448.83433984 -510.64037116 447.21722399 C-510.63094506 422.56703713 -510.62407788 397.91685118 -510.62164307 373.2666626 C-510.6215365 372.20680502 -510.62142994 371.14694745 -510.62132015 370.05497298 C-510.620787 364.71083997 -510.62027225 359.36670696 -510.61975877 354.02257395 C-510.61965656 352.9664033 -510.61955435 351.91023265 -510.61944905 350.82205683 C-510.61924349 348.69027871 -510.61904093 346.55850059 -510.61884138 344.42672247 C-510.61546052 309.2043147 -510.59854746 273.98193356 -510.56673984 238.75953965 C-510.56226646 233.7849447 -510.55797661 228.81034961 -510.55381393 223.83575439 C-510.55299348 222.8567097 -510.55217302 221.87766501 -510.5513277 220.8689523 C-510.53857862 205.11204187 -510.54057479 189.35516597 -510.54844838 173.59825373 C-510.55613224 157.76000282 -510.54972649 141.92180941 -510.52880932 126.08356994 C-510.51684438 116.67474445 -510.51607291 107.26607187 -510.53130184 97.85725029 C-510.54038952 91.56916515 -510.53496581 85.28119963 -510.51785937 78.9931315 C-510.50853615 75.41233589 -510.50544252 71.83184282 -510.52012999 68.25105834 C-510.53583838 64.38667256 -510.52043232 60.52275326 -510.50222206 56.65837097 C-510.51643517 55.00552022 -510.51643517 55.00552022 -510.53093541 53.31927854 C-510.40174886 39.70695702 -505.99481166 27.42842152 -496.60546875 17.45703125 C-491.85170143 12.98074958 -487.12764297 9.32802184 -481 7 C-480.07316406 6.64679688 -479.14632812 6.29359375 -478.19140625 5.9296875 C-461.77208858 1.1465815 -441.52688771 7.25140404 -425 10 C-423.46583723 10.25384577 -421.93165748 10.50758888 -420.39746094 10.76123047 C-414.25793022 11.77768947 -408.11943445 12.80023029 -401.98242188 13.83178711 C-384.45197435 16.77748871 -366.90962109 19.54425717 -349.27368164 21.78369141 C-340.97348144 22.8482033 -332.69055046 24.02185576 -324.41015625 25.22952271 C-322.90479544 25.44887356 -321.39926481 25.66706264 -319.89355469 25.88400269 C-312.85781728 26.89932491 -305.87331276 27.93554337 -298.95068359 29.57788086 C-295.58139979 30.30697869 -292.17580316 30.64763167 -288.75 31 C-277.47503838 32.18683807 -266.31678119 34.10172843 -255.14453125 36.00366211 C-239.61371086 38.64512068 -224.06247441 41.06475171 -208.4682312 43.30047607 C-198.24305349 44.76736472 -188.03089052 46.29268493 -177.83203125 47.93359375 C-176.824216 48.0956279 -175.81640076 48.25766205 -174.77804565 48.42460632 C-169.88003487 49.21407029 -164.98334336 50.01099453 -160.08789062 50.81616211 C-158.31511603 51.10407694 -156.54233015 51.39192234 -154.76953125 51.6796875 C-153.96828323 51.81374496 -153.16703522 51.94780243 -152.34150696 52.08592224 C-145.33673895 53.21657035 -140.41598558 53.56515853 -133.87890625 50.296875 C-127.66264806 47.29368204 -121.38086577 44.71926974 -114.9375 42.25 C-103.50534484 37.81086844 -92.13521385 33.23113023 -80.7878418 28.57965088 C-77.99032108 27.43353465 -75.19155417 26.29050615 -72.39257812 25.14794922 C-63.51939129 21.52130818 -54.65934687 17.8680546 -45.83187866 14.13130188 C-41.83355284 12.44080872 -37.82930668 10.76461327 -33.82446289 9.08963013 C-31.91974167 8.28825794 -30.01795721 7.47986467 -28.11938477 6.66403198 C-7.80079358 -2.0633483 -7.80079358 -2.0633483 0 0 Z " fill="#FDFCFC" transform="translate(885,236)"/>
<path d="M0 0 C4.86724395 2.93801866 6.18395404 6.33974439 7.5625 11.625 C8.78036743 16.04030737 10.07976166 20.31628436 11.828125 24.5546875 C14.63685254 31.41346762 16.87871131 38.4619151 19.1875 45.5 C20.15252906 48.43439614 21.11993492 51.36799437 22.08984375 54.30078125 C22.33183502 55.03255081 22.57382629 55.76432037 22.82315063 56.51826477 C24.40582051 61.27899259 26.05591849 66.00960868 27.75390625 70.73046875 C28.17583252 71.90996094 28.59775879 73.08945312 29.0324707 74.3046875 C29.82550589 76.50807543 30.62950106 78.70755918 31.44604492 80.90234375 C34.75928674 90.14705226 34.75928674 90.14705226 33 95 C30.78634288 99.29843693 27.71395326 100.11123623 23.25 101.5625 C21.98515164 101.98541091 20.7208208 102.40987298 19.45703125 102.8359375 C18.31621094 103.22007812 17.17539062 103.60421875 16 104 C13.63274374 104.94047193 11.32651456 105.96049349 9 107 C5.48872571 108.55149329 3.95785851 109 0 109 C0.93216392 106.13692509 1.85871987 103.32411323 3.0625 100.5625 C4.1843669 97.886016 4.1843669 97.886016 4.1875 94.375 C4.5896875 92.704375 4.5896875 92.704375 5 91 C7.46059422 89.64908552 9.39062399 88.84327395 12 88 C14.0072458 87.01462479 16.00980253 86.01936943 18 85 C17.47875341 77.70301857 15.72614751 71.42510687 13.32421875 64.53515625 C12.77457207 62.92512978 12.77457207 62.92512978 12.21382141 61.28257751 C11.44056458 59.02292241 10.66291161 56.76476739 9.88110352 54.50805664 C8.69336971 51.079444 7.51833531 47.64669403 6.34570312 44.21289062 C5.58927908 42.00755943 4.83214098 39.802473 4.07421875 37.59765625 C3.7261467 36.58381363 3.37807465 35.56997101 3.01945496 34.52540588 C0.85199287 28.27550298 -1.48447471 22.11815491 -4 16 C-10.58268812 16.52661505 -16.28141825 17.81731899 -22.5 20 C-23.30953125 20.27328125 -24.1190625 20.5465625 -24.953125 20.828125 C-28.76922576 21.89455143 -28.76922576 21.89455143 -32 24 C-32.42135692 28.31890838 -31.60634426 31.48110656 -29.98828125 35.46875 C-28.70616845 38.75258042 -27.60362158 42.09068801 -26.5 45.4375 C-26.2841626 46.09008789 -26.0683252 46.74267578 -25.84594727 47.41503906 C-25.23047764 49.27664184 -24.61523357 51.13831919 -24 53 C-23.19454601 55.38995365 -22.38836841 57.77963497 -21.578125 60.16796875 C-20.96967811 62.09608761 -20.47076039 64.0341395 -20 66 C-19.29875 66.0825 -18.5975 66.165 -17.875 66.25 C-10.69244373 68.12371033 -5.68281914 73.68335329 -1.87109375 79.81640625 C1.34930597 87.88906744 -0.46858122 96.5721078 -3.66625977 104.29077148 C-5.26433757 107.89367959 -6.92044189 111.4659449 -8.60888672 115.02734375 C-11.13684625 120.42931553 -13.48899616 125.9092608 -15.875 131.375 C-16.78820432 133.44569118 -17.70222104 135.51602434 -18.6171875 137.5859375 C-20.4380035 141.71302553 -22.23437244 145.84902129 -24 150 C-23.46971191 149.6596875 -22.93942383 149.319375 -22.39306641 148.96875 C-10.16824251 141.13319273 2.12829568 133.42720072 14.50854492 125.83959961 C21.10011331 121.79614814 27.65994078 117.70840037 34.1875 113.5625 C37.12279653 111.70482343 40.06026342 109.85064197 43 108 C43.68126953 107.57074219 44.36253906 107.14148438 45.06445312 106.69921875 C55.67127144 100.05323948 67.57546965 92.59990859 80.3125 91.4375 C83.79643666 91.40985408 83.79643666 91.40985408 85 90 C97.87478946 89.09564059 111.69447326 88.70047861 124 93 C124.8353125 93.2784375 125.670625 93.556875 126.53125 93.84375 C129.08882519 94.78260672 131.53119486 95.84789093 134 97 C134.99515625 97.45890625 135.9903125 97.9178125 137.015625 98.390625 C151.19597728 105.44654908 161.65981708 116.10362901 171.56640625 128.25195312 C173.44521226 130.54286781 175.36707248 132.79542892 177.2902832 135.04907227 C181.82705504 140.36905755 186.27076171 145.76031 190.68359375 151.18359375 C193.2778729 154.33785221 195.91607409 157.45201963 198.5625 160.5625 C203.15048876 165.9575613 207.59531321 171.4540989 212 177 C215.01669334 181.05668604 215.01669334 181.05668604 219 184 C224.40386316 184.43769103 227.36897175 183.68394627 231.9140625 180.78125 C233.00589844 180.09546875 234.09773438 179.4096875 235.22265625 178.703125 C236.35707663 177.96922247 237.49119072 177.23484628 238.625 176.5 C240.84635417 175.09375 243.06770833 173.6875 245.2890625 172.28125 C249.53410994 169.57585449 249.53410994 169.57585449 253.77331543 166.86132812 C255.51865696 165.74369819 257.27026707 164.63654714 259.0234375 163.53125 C260.05130371 162.87705078 261.07916992 162.22285156 262.13818359 161.54882812 C267.0925681 158.86749258 272.42247109 158.29189633 278 159 C287.58569024 161.85940992 293.70303464 165.80804045 298.80078125 174.46484375 C301.53078971 180.23609941 302.19054914 187.25563042 300.24609375 193.37109375 C297.0138676 200.88760398 293.43191078 206.27969509 286.25 210.4375 C284.8145525 211.30116711 283.37969494 212.16581518 281.9453125 213.03125 C281.15930664 213.50046875 280.37330078 213.9696875 279.56347656 214.453125 C275.74929312 216.75471227 271.9817273 219.129007 268.20996094 221.49926758 C264.11803602 224.07015963 260.01649723 226.6255064 255.91503906 229.18115234 C254.04041541 230.35082958 252.16724472 231.5228404 250.29589844 232.69775391 C247.86799898 234.22180628 245.43478524 235.73698073 243 237.25 C242.30148926 237.69142334 241.60297852 238.13284668 240.88330078 238.58764648 C229.1990289 245.80473686 218.60710587 247.24004339 205.3203125 244.2421875 C196.41124449 240.90914794 189.82711541 235.41130929 183.3125 228.625 C182.60544922 227.90828125 181.89839844 227.1915625 181.16992188 226.453125 C177.14597189 222.3438747 173.30816457 218.10954727 169.54760742 213.75927734 C167.62408042 211.57266501 165.58980256 209.52742039 163.5 207.5 C159.99421755 204.04207806 156.7004012 200.47438402 153.5078125 196.7265625 C152.05780842 195.06619514 150.64684654 193.46686331 149 192 C148.34 192 147.68 192 147 192 C146.8548999 192.5355249 146.7097998 193.0710498 146.56030273 193.62280273 C144.71735723 200.41808097 142.86157941 207.20980438 141 214 C140.7220459 215.01529785 140.4440918 216.0305957 140.15771484 217.07666016 C136.92421235 228.85706554 133.55789933 240.58225607 129.9375 252.25 C127.39866445 260.44689984 124.86183554 268.64336739 122.4375 276.875 C122.17380615 277.74286133 121.9101123 278.61072266 121.63842773 279.50488281 C121.40583252 280.30506836 121.1732373 281.10525391 120.93359375 281.9296875 C120.72790771 282.62304199 120.52222168 283.31639648 120.31030273 284.03076172 C119.93147145 286.43489482 120.04867473 287.7512848 121 290 C122.85096638 291.71947457 122.85096638 291.71947457 125.2421875 293.21484375 C126.13373535 293.81176025 127.0252832 294.40867676 127.94384766 295.02368164 C128.91112793 295.6552417 129.8784082 296.28680176 130.875 296.9375 C132.90121505 298.28880255 134.92725379 299.64036951 136.953125 300.9921875 C137.97341797 301.66733398 138.99371094 302.34248047 140.04492188 303.03808594 C144.26546791 305.84016029 148.44751918 308.69677566 152.625 311.5625 C153.38949463 312.08553711 154.15398926 312.60857422 154.94165039 313.14746094 C163.24174309 318.83348144 171.4857968 324.59881045 179.7109375 330.39257812 C181.84325292 331.88992931 183.98283 333.37617331 186.125 334.859375 C205.31434422 348.20826883 210.64386968 362.85798753 216.83300781 384.89941406 C218.77670159 391.77488064 220.85142704 398.61223988 222.90139771 405.45657349 C226.34273104 416.95821167 229.73908136 428.47071661 233.00878906 440.02246094 C235.05234493 447.22961817 237.2046442 454.40202772 239.3671875 461.57421875 C243.96762456 476.83775064 248.49024733 492.12347772 252.84057617 507.46020508 C257.19365545 522.7992795 257.19365545 522.7992795 262 538 C262.56128245 543.66679397 262.32838683 548.17957769 259 553 C254.52451966 556.57910144 250.37624591 556.46743504 244.89453125 556.46875 C244.01528488 556.47636353 243.13603851 556.48397705 242.23014832 556.49182129 C240.3718041 556.50260581 238.51339935 556.50548209 236.6550293 556.50097656 C233.8386256 556.50000898 231.02499175 556.54154821 228.20898438 556.5859375 C217.55335066 556.66177072 209.43820214 556.43762831 200.99707031 549.30834961 C195.7512753 544.06596805 193.96630208 538.08184982 192.0625 531.0625 C191.39359325 528.74691388 190.72297381 526.43182192 190.05078125 524.1171875 C189.7151416 522.93995117 189.37950195 521.76271484 189.03369141 520.54980469 C187.38623985 514.89228329 185.56812306 509.29203235 183.75 503.6875 C181.37863437 496.3230986 179.04367089 488.95177837 176.7890625 481.55078125 C175.85835173 478.54209741 174.8584046 475.56066111 173.84765625 472.578125 C172.68609591 469.04526866 171.59794955 465.49054737 170.5 461.9375 C168.64572776 455.91896025 168.64572776 455.91896025 166.5 450 C165.11032462 446.42216173 163.95862553 442.78803241 162.8125 439.125 C162.6047998 438.46491943 162.39709961 437.80483887 162.18310547 437.12475586 C160.77133202 432.59938023 159.44101086 428.05587522 158.14453125 423.49609375 C157.81155029 422.35317871 157.47856934 421.21026367 157.13549805 420.03271484 C156.47609097 417.76820356 155.83226757 415.49907923 155.20629883 413.22509766 C151.85906765 401.85743534 146.1328373 395.14058105 136.4375 388.5625 C135.64666016 388.00884766 134.85582031 387.45519531 134.04101562 386.88476562 C132.44364209 385.76699093 130.84262411 384.65440415 129.23779297 383.54736328 C126.13282438 381.4003754 123.066373 379.20155646 120 377 C118.86865185 376.19248095 117.73713838 375.38519347 116.60546875 374.578125 C100.26721313 362.90599142 84.04592956 351.07122476 68 339 C67.84144531 339.93457031 67.68289063 340.86914062 67.51953125 341.83203125 C66.05181072 350.19630901 64.20015877 358.3727674 61.97998047 366.56860352 C60.349577 372.60400994 58.86337219 378.66319448 57.4375 384.75 C55.44653534 393.21372115 53.31184961 401.61719572 51 410 C50.52433594 411.78664063 50.52433594 411.78664063 50.0390625 413.609375 C46.16288226 427.81169939 41.84964086 440.19615762 29.1875 448.875 C18.02782078 454.89115182 5.69269456 456.42332482 -6.65625 458.27734375 C-8.56757879 458.57252833 -10.47874951 458.8687381 -12.38977051 459.16590881 C-17.40813779 459.94393858 -22.42823891 460.71010295 -27.44891357 461.4730835 C-35.40592644 462.68424817 -43.36033555 463.91247977 -51.31464195 465.14127541 C-53.24771949 465.43985844 -55.18085664 465.73805581 -57.11405373 466.03586388 C-71.87615983 468.312272 -86.58773434 470.77432191 -101.27461243 473.49813843 C-134.06815722 479.5368465 -134.06815722 479.5368465 -140.8515625 475.16015625 C-143.7420936 472.25385861 -143.97360545 470.49587908 -144.19042969 466.42236328 C-144.12220962 461.53404704 -143.09069226 456.97908779 -141.953125 452.2421875 C-141.74065125 451.33550323 -141.52817749 450.42881897 -141.30926514 449.49465942 C-140.85979839 447.58927736 -140.40572186 445.68497738 -139.94726562 443.78173828 C-139.25122071 440.88008886 -138.57797324 437.97376978 -137.90625 435.06640625 C-137.46491158 433.20800747 -137.02224783 431.34992283 -136.578125 429.4921875 C-136.38003235 428.62955292 -136.1819397 427.76691833 -135.97784424 426.87814331 C-134.26528771 419.89962643 -131.61788569 415.05903245 -126.125 410.25 C-125.48820312 409.67765625 -124.85140625 409.1053125 -124.1953125 408.515625 C-118.82432785 404.80754307 -112.43667348 404.34151838 -106.125 403.5 C-105.18591797 403.37036865 -104.24683594 403.2407373 -103.27929688 403.10717773 C-96.74262301 402.21211682 -90.19774084 401.39082546 -83.6484375 400.59375 C-76.21268691 399.66470194 -68.79659089 398.58048775 -61.37670898 397.53369141 C-55.11132457 396.66182384 -48.84877898 395.85181918 -42.55859375 395.1796875 C-41.38087402 395.05327881 -40.2031543 394.92687012 -38.98974609 394.79663086 C-36.76067149 394.5630528 -34.53053041 394.33936792 -32.29931641 394.12719727 C-24.73144585 393.36032773 -24.73144585 393.36032773 -18 390 C-14.8250542 385.84730923 -13.36999991 382.49388242 -12.46484375 377.3671875 C-12.28511772 376.39338135 -12.28511772 376.39338135 -12.10176086 375.39990234 C-11.84033155 373.97840838 -11.58492289 372.55579694 -11.33483887 371.13226318 C-10.63296857 367.14497146 -9.88318037 363.1666439 -9.13671875 359.1875 C-8.97462921 358.31858124 -8.81253967 357.44966248 -8.64553833 356.55441284 C-6.18525224 343.49715965 -3.33162325 330.51767513 -0.52804565 317.53070068 C1.87102867 306.41195967 4.21319701 295.3171934 6.00805664 284.08320618 C7.05527012 277.5320346 8.36653888 271.05089932 9.75 264.5625 C10.27568003 262.05488447 10.8003749 259.54706226 11.32421875 257.0390625 C11.52717812 256.06920662 11.52717812 256.06920662 11.73423767 255.07975769 C13.37969767 247.20630316 14.97907265 239.32364208 16.5625 231.4375 C16.70951355 230.70588654 16.8565271 229.97427307 17.00799561 229.2204895 C19.3266 217.65320136 21.48105358 206.06454125 23.49047852 194.43920898 C23.67666748 193.36614502 23.86285645 192.29308105 24.0546875 191.1875 C24.21437012 190.25292969 24.37405273 189.31835938 24.53857422 188.35546875 C25 186 25 186 26 183 C17.65251251 187.16206416 9.30616382 191.32640131 0.96118832 195.49349976 C-2.91539214 197.42920101 -6.79233397 199.36417043 -10.67016602 201.29736328 C-14.42529398 203.16942102 -18.17938859 205.04353683 -21.9328289 206.91897583 C-23.35190005 207.62760057 -24.77131779 208.33553172 -26.19111824 209.04269409 C-28.20789735 210.04735571 -30.22356848 211.05418907 -32.23852539 212.0625 C-32.88085145 212.38364273 -33.52317751 212.70478546 -34.18496799 213.03565979 C-37.53495416 214.72152925 -40.85519988 216.44995336 -44.14962769 218.2421875 C-45.16424277 218.79314087 -45.16424277 218.79314087 -46.19935513 219.35522461 C-47.48191479 220.05555448 -48.76130803 220.76172817 -50.03679752 221.47485352 C-57.10554853 225.34143027 -64.6466172 226.22837311 -72.51953125 224.421875 C-83.05248739 220.77266185 -90.67280061 212.66269604 -95.56640625 202.86328125 C-97.33015282 198.67458875 -97.51556483 194.81462788 -97.5 190.3125 C-97.52835937 189.58611328 -97.55671875 188.85972656 -97.5859375 188.11132812 C-97.61066423 180.99621251 -94.97440037 175.35968865 -92 169 C-91.43272483 167.77003862 -90.86567614 166.53997276 -90.29882812 165.30981445 C-88.72732282 161.91999607 -87.13191528 158.54192831 -85.5289917 155.16687012 C-83.7453487 151.41084106 -81.9710286 147.6504063 -80.1953125 143.890625 C-79.83780914 143.13428772 -79.48030579 142.37795044 -79.11196899 141.59869385 C-75.83561327 134.66327125 -72.59941231 127.70973679 -69.375 120.75 C-68.8601001 119.64132568 -68.3452002 118.53265137 -67.81469727 117.39038086 C-65.26071732 111.88928693 -62.71549728 106.3843815 -60.1875 100.87130737 C-58.91708719 98.10389212 -57.64113375 95.33905132 -56.36431885 92.57458496 C-55.75365238 91.2488536 -55.14547543 89.92197224 -54.53997803 88.59387207 C-53.69839803 86.74845993 -52.8474209 84.90734214 -51.99609375 83.06640625 C-51.51325928 82.01396729 -51.0304248 80.96152832 -50.53295898 79.87719727 C-48.15107817 75.40666606 -45.4472801 71.92321741 -41.125 69.25 C-40.48820313 68.84265625 -39.85140625 68.4353125 -39.1953125 68.015625 C-36.4981128 66.76781019 -33.93428616 66.38455032 -31 66 C-31.47179687 64.81857422 -31.47179687 64.81857422 -31.953125 63.61328125 C-34.59258186 56.89538652 -36.91779102 50.18128465 -38.953125 43.2578125 C-40.04175586 39.87005826 -41.37027202 36.65379176 -42.75 33.375 C-44.95863111 27.70252196 -46.58130961 22.03688198 -45 16 C-41.61740316 10.86252209 -38.60203667 8.95701169 -32.625 7.4375 C-31.19862803 7.03856442 -29.77285904 6.63746753 -28.34765625 6.234375 C-27.62594238 6.03521484 -26.90422852 5.83605469 -26.16064453 5.63085938 C-23.38917161 4.82165191 -20.69023811 3.8513472 -17.97558594 2.87109375 C-11.74245955 0.64384083 -6.60071158 -0.95816781 0 0 Z " fill="#B91720" transform="translate(558,408)"/>
<path d="M0 0 C11.95654692 10.21927087 20.57591737 22.64503568 22.875 38.5546875 C24.18612501 58.5049868 21.34705101 76.49632035 8.11865234 92.32324219 C-2.43891105 104.23298726 -16.9813914 111.84666127 -32.91015625 112.99609375 C-50.09098105 113.67962641 -64.30956076 108.46637725 -77.4375 97.2421875 C-90.67822772 84.70169057 -96.90360359 68.52267684 -97.52978516 50.45751953 C-97.76273759 32.90264117 -91.50395964 17.49857789 -79.45703125 4.66967773 C-58.47635126 -16.50698347 -23.40710706 -18.31606128 0 0 Z " fill="#B8171F" transform="translate(681.125,372.4453125)"/>
<path d="M0 0 C1.20040067 -0.00175304 2.40080135 -0.00350607 3.6375778 -0.00531223 C6.94376418 -0.00913915 10.24989434 -0.00855538 13.55607824 -0.00603446 C17.16294609 -0.00439038 20.76980825 -0.00855132 24.37667423 -0.01194364 C30.68998406 -0.01708145 37.00328623 -0.01851766 43.31659794 -0.01748753 C52.70534962 -0.01595934 62.09409286 -0.02013158 71.4828429 -0.02536215 C89.23017928 -0.03502339 106.97751278 -0.03784595 124.72485148 -0.03841921 C138.43430847 -0.03887914 152.14376432 -0.04093953 165.85322094 -0.04411983 C169.80269291 -0.04501741 173.75216488 -0.04590723 177.70163685 -0.04679471 C179.17451647 -0.04712628 179.17451647 -0.04712628 180.67715124 -0.04746456 C208.29033939 -0.05361724 235.90352714 -0.05756528 263.516716 -0.05712128 C264.55740233 -0.0571057 265.59808866 -0.05709012 266.67031094 -0.05707407 C271.94465881 -0.05699096 277.21900668 -0.05689192 282.49335455 -0.05678936 C283.5408132 -0.05676942 284.58827184 -0.05674947 285.66747166 -0.05672892 C287.78568862 -0.05668848 289.90390559 -0.05664669 292.02212255 -0.05660353 C324.96630899 -0.05599099 357.91048513 -0.06349395 390.85466862 -0.07717609 C427.88893639 -0.09255066 464.9231974 -0.10114147 501.95746857 -0.10021287 C505.90976973 -0.10013824 509.8620709 -0.10008954 513.81437206 -0.10005856 C514.78748849 -0.1000469 515.76060492 -0.10003525 516.76320972 -0.10002324 C532.39515803 -0.09999252 548.02709737 -0.10636718 563.65904301 -0.11499082 C579.38219312 -0.1234851 595.10533017 -0.1244434 610.82848131 -0.1178815 C620.15765527 -0.11419756 629.48678944 -0.1159835 638.81595916 -0.12582384 C645.06214417 -0.131853 651.30830056 -0.13049599 657.5544843 -0.12335334 C661.10376867 -0.11949642 664.65297642 -0.11862406 668.20225518 -0.12681069 C713.62235886 -0.21110509 754.37598157 6.95674393 792.43596745 33.12863445 C793.41823307 33.80281414 794.4004987 34.47699383 795.41252995 35.1716032 C834.1179816 62.97484543 860.52860918 105.77040431 870.43596745 152.12863445 C871.1719801 156.77801107 871.67773309 161.43037062 872.1200304 166.11608505 C872.30754559 168.06413635 872.30754559 168.06413635 872.49884896 170.05154223 C873.77098503 183.94917842 873.84841456 197.820552 873.80346012 211.76692486 C873.80381887 214.62193663 873.80871388 217.47693695 873.8133657 220.33194453 C873.82103151 226.47825896 873.81784361 232.62448813 873.80704212 238.77079678 C873.79102253 247.91226472 873.79255318 257.05367463 873.79733441 266.1951524 C873.8048849 281.59342889 873.79847134 296.99166927 873.78372288 312.38993931 C873.76912889 327.64634706 873.76043237 342.90273898 873.7595377 358.15915394 C873.7594766 359.11239555 873.75941551 360.06563717 873.75935256 361.04776489 C873.759123 364.91847861 873.75893584 368.78919233 873.75880442 372.65990606 C873.75759531 407.87955444 873.74194434 443.09918088 873.71721745 478.31882 C873.69396023 511.45326183 873.67975465 544.58769037 873.67620182 577.72214031 C873.67603455 579.25157787 873.67603455 579.25157787 873.6758639 580.81191317 C873.67541498 584.92323058 873.67497299 589.034548 873.67453147 593.14586541 C873.67431107 595.19541155 873.67408978 597.2449577 873.67386759 599.29450384 C873.67364622 601.33949594 873.67342745 603.38448803 873.67321129 605.42948013 C873.66968012 638.14945397 873.65821679 670.86942537 873.64540495 703.58939673 C873.64170467 713.13035646 873.63843517 722.67131603 873.63615608 732.21227622 C873.63131841 752.26862217 873.62408594 772.32496021 873.60800841 792.38130074 C873.60143679 800.66459791 873.59625782 808.94788883 873.59554768 817.23118877 C873.58866 874.16855388 873.58866 874.16855388 873.1616939 899.52592421 C873.13051244 901.4308943 873.10319805 903.33593343 873.08058968 905.24102455 C872.59237648 943.95177464 862.93819391 981.71700486 839.43596745 1013.12863445 C838.92034245 1013.9072282 838.40471745 1014.68582195 837.87346745 1015.48800945 C833.90992541 1021.47143349 829.36700279 1026.65081833 824.43523502 1031.83883953 C821.60330226 1034.73840361 821.60330226 1034.73840361 819.43596745 1038.12863445 C818.77596745 1038.12863445 818.11596745 1038.12863445 817.43596745 1038.12863445 C817.1806525 1038.71950848 816.92533756 1039.3103825 816.6622858 1039.9191618 C815.31131546 1042.35322145 813.9354998 1043.6901507 811.8148737 1045.48019695 C811.09960514 1046.08508953 810.38433659 1046.68998211 809.64739323 1047.31320477 C789.08133157 1064.19653823 767.13993678 1077.60483929 741.43596745 1085.12863445 C740.26163151 1085.48570477 739.08729557 1085.84277508 737.8773737 1086.2106657 C730.76213271 1088.25562732 723.68511684 1089.69831511 716.37346745 1090.81613445 C715.59527653 1090.93553387 714.81708561 1091.05493328 714.01531315 1091.17795086 C702.64145757 1092.80094192 691.21326795 1093.27889224 679.736063 1093.25726891 C678.53311971 1093.25902194 677.33017641 1093.26077498 676.09078029 1093.26258114 C672.78211813 1093.26640396 669.47351226 1093.26582636 666.16485261 1093.26330337 C662.55354787 1093.26165765 658.94224879 1093.26582156 655.33094591 1093.26921254 C649.01136679 1093.27434774 642.69179532 1093.27578702 636.37221432 1093.27475643 C626.97410283 1093.27322757 617.57599977 1093.27740198 608.17788992 1093.28263106 C590.41251687 1093.2922898 572.6471467 1093.29511476 554.88177133 1093.29568812 C541.1580448 1093.29614813 527.43431939 1093.29820894 513.71059322 1093.30138874 C509.75634446 1093.30228632 505.80209569 1093.30317614 501.84784693 1093.30406362 C500.86472737 1093.30428467 499.88160782 1093.30450571 498.86869677 1093.30473346 C471.22371404 1093.31088571 443.57873169 1093.31483423 415.93374825 1093.31439018 C414.89197029 1093.3143746 413.85019233 1093.31435903 412.77684535 1093.31434297 C407.49701972 1093.31425987 402.21719409 1093.31416083 396.93736846 1093.31405827 C395.36456139 1093.31402835 395.36456139 1093.31402835 393.75998044 1093.31399783 C391.63958098 1093.31395739 389.51918153 1093.31391559 387.39878208 1093.31387244 C354.42085703 1093.3132599 321.44294228 1093.32076297 288.46502018 1093.334445 C251.38898481 1093.34982105 214.3129562 1093.35841029 177.23691744 1093.35748178 C173.27983948 1093.35740715 169.32276152 1093.35735844 165.36568356 1093.35732746 C163.90425507 1093.35730998 163.90425507 1093.35730998 162.41330278 1093.35729215 C146.76579977 1093.35726143 131.11830571 1093.36363478 115.47080536 1093.37225973 C99.73095689 1093.38075583 83.99112147 1093.38171088 68.25127197 1093.3751504 C58.91341603 1093.3714677 49.57559985 1093.37324866 40.23774815 1093.38309274 C33.98453505 1093.38912511 27.73135052 1093.3877614 21.47813869 1093.38062225 C17.92567806 1093.37676799 14.37329395 1093.37588502 10.82083894 1093.3840796 C-36.84956579 1093.47253768 -81.46375823 1086.1620471 -120.56403255 1057.12863445 C-121.13702084 1056.70372723 -121.71000912 1056.27882 -122.30036068 1055.8410368 C-134.01379539 1047.11382076 -134.01379539 1047.11382076 -138.56403255 1042.12863445 C-138.56403255 1041.46863445 -138.56403255 1040.80863445 -138.56403255 1040.12863445 C-139.10672787 1039.91980633 -139.64942318 1039.7109782 -140.2085638 1039.49582195 C-143.45403028 1037.61205202 -145.75908818 1035.00848337 -148.25153255 1032.25363445 C-149.0416473 1031.38786785 -149.0416473 1031.38786785 -149.84772396 1030.50461102 C-154.81358694 1024.98631647 -159.27444419 1019.19056772 -163.56403255 1013.12863445 C-164.39354427 1011.97621258 -164.39354427 1011.97621258 -165.2398138 1010.80050945 C-168.63162793 1005.92751552 -171.33307811 1000.84498269 -173.92340755 995.5075407 C-175.12002172 993.04308534 -176.33577454 990.59630801 -177.57965755 988.1559782 C-185.34427239 972.90598643 -190.61464497 957.92834153 -193.75153255 941.06613445 C-194.00193295 939.73823895 -194.00193295 939.73823895 -194.25739193 938.38351727 C-196.53306594 925.60509263 -196.71007264 912.80328584 -196.6910162 899.86548138 C-196.69217286 898.14364118 -196.69376484 896.42180123 -196.69574988 894.69996178 C-196.6999121 889.98919096 -196.69787566 885.27844056 -196.6947667 880.56766969 C-196.6924757 875.45533387 -196.69593807 870.34300134 -196.69863415 865.23066616 C-196.70301722 855.15559959 -196.70197292 845.08054036 -196.69913661 835.00547352 C-196.69694565 826.70759938 -196.69702086 818.40972786 -196.69860363 810.1118536 C-196.69883037 808.9201784 -196.69905712 807.7285032 -196.69929073 806.50071663 C-196.69976155 804.07431423 -196.70023644 801.64791182 -196.70071532 799.22150941 C-196.70594086 770.89365995 -196.70027012 742.565816 -196.69228601 714.23796763 C-196.68968331 704.94394986 -196.68752338 695.64993206 -196.68562984 686.35591412 C-196.67044684 612.38881983 -196.6325183 538.42175731 -196.57231408 464.45468608 C-196.5660154 456.68440675 -196.56006537 448.91412723 -196.55434322 441.14384747 C-196.52301479 398.74302234 -196.48263009 356.34227837 -196.37691593 313.94156361 C-196.37505432 313.1936936 -196.3731927 312.44582358 -196.37127467 311.67529085 C-196.36942099 310.9311823 -196.3675673 310.18707376 -196.36565745 309.42041647 C-196.36381334 308.67998735 -196.36196922 307.93955822 -196.36006923 307.17669185 C-196.35636519 305.69205525 -196.3526453 304.20741869 -196.3489093 302.72278218 C-196.32164634 291.81170269 -196.30470385 280.90064234 -196.29358578 269.98953533 C-196.2811682 257.84427504 -196.25472998 245.69916411 -196.20962012 233.55397141 C-196.18759347 227.55604739 -196.17106439 221.55827771 -196.17211437 215.56030941 C-196.17111672 154.71606067 -184.74151863 102.5451579 -141.56403255 57.12863445 C-141.05034115 56.58626141 -140.53664974 56.04388836 -140.00739193 55.48507977 C-103.31725904 17.00794287 -52.43909436 -0.09867815 0 0 Z M-36.56403255 5.12863445 C-38.32288393 5.38177215 -40.08194316 5.63347871 -41.8413763 5.8825407 C-69.86215817 10.52224991 -97.30634007 22.42301709 -119.56403255 40.12863445 C-120.09077572 40.54403484 -120.61751888 40.95943523 -121.16022396 41.38742352 C-158.99293087 71.45634061 -185.86083799 115.25732045 -191.87718256 163.64732849 C-193.65316726 180.35336388 -193.85806207 197.02852722 -193.83337039 213.81034426 C-193.83004907 217.59810336 -193.83843076 221.38584186 -193.84518874 225.17359394 C-193.85541186 231.7874721 -193.85834607 238.40132105 -193.85627651 245.01520634 C-193.85320647 254.8507765 -193.86159422 264.68631471 -193.87202576 274.52187863 C-193.89129584 293.11412442 -193.89699127 311.70635912 -193.89813988 330.29861373 C-193.89906118 344.6580675 -193.90318936 359.01751697 -193.90954113 373.37696934 C-193.91133636 377.51956635 -193.91311599 381.66216337 -193.91489089 385.8047604 C-193.91533298 386.83477858 -193.91577508 387.86479676 -193.91623057 388.92602762 C-193.9285257 417.86779002 -193.936433 446.80955094 -193.93554401 475.75131607 C-193.93551286 476.84085112 -193.9354817 477.93038616 -193.9354496 479.05293742 C-193.9352834 484.57441746 -193.93508532 490.09589749 -193.93488018 495.61737753 C-193.93484029 496.71385212 -193.9348004 497.81032672 -193.9347593 498.94002782 C-193.93467843 501.15735966 -193.93459483 503.37469149 -193.93450852 505.59202332 C-193.93328259 540.10220937 -193.94830951 574.61235613 -193.97565365 609.12253094 C-194.00640168 647.94411403 -194.02358467 686.76567131 -194.0217272 725.58726734 C-194.02157795 729.72955 -194.02148053 733.87183267 -194.02141857 738.01411533 C-194.02139526 739.0339631 -194.02137195 740.05381087 -194.02134794 741.10456312 C-194.02128652 757.48237631 -194.03403152 773.86015525 -194.0512831 790.23795827 C-194.06826944 806.70473244 -194.07018979 823.17145671 -194.05706446 839.6382348 C-194.04969671 849.40720966 -194.05326812 859.17603249 -194.07294914 868.94499111 C-194.08500701 875.485222 -194.08229408 882.02534357 -194.06800814 888.56556959 C-194.06029409 892.28184667 -194.05854953 895.99783104 -194.07492284 899.71408672 C-194.27166713 947.5464962 -180.64975339 993.12633672 -147.67340755 1028.83175945 C-145.78503443 1030.88798796 -143.98422673 1032.99149853 -142.18903255 1035.12863445 C-112.75745563 1068.65912962 -67.9916178 1085.81222489 -24.56403255 1090.12863445 C-15.0717671 1090.72565366 -5.56520376 1090.68075163 3.94178364 1090.64250467 C7.65047332 1090.63215934 11.35910191 1090.64547417 15.06778234 1090.655478 C21.53828089 1090.66978859 28.00864546 1090.66957166 34.47914982 1090.65928936 C44.10160134 1090.64404049 53.72394167 1090.65195542 63.34639265 1090.66412259 C80.54052472 1090.68509752 97.73459705 1090.68339534 114.92873469 1090.67180694 C129.97562563 1090.66171638 145.02249476 1090.65913107 160.06938839 1090.66389751 C161.07024694 1090.66420305 162.07110549 1090.6645086 163.10229308 1090.66482339 C167.16581909 1090.66606889 171.22934508 1090.66734251 175.29287106 1090.66866245 C213.35542213 1090.68087857 251.41793532 1090.66983603 289.48048054 1090.64827486 C323.24601795 1090.62929319 357.01149501 1090.63099448 390.7770319 1090.65011883 C428.77464407 1090.6715686 466.7722228 1090.68001342 504.76984018 1090.66766977 C508.82534754 1090.66638704 512.8808549 1090.66513567 516.93636227 1090.66389751 C517.93482101 1090.6635812 518.93327975 1090.6632649 519.96199481 1090.662939 C534.99467511 1090.65840214 550.02733112 1090.6636858 565.06000805 1090.67381573 C582.16371656 1090.68528427 599.26735637 1090.68232647 616.37105639 1090.66069275 C625.92611939 1090.64900342 635.48103335 1090.6480995 645.03609228 1090.66327745 C651.43746884 1090.67231864 657.83872719 1090.66653711 664.24008639 1090.64925837 C667.87453521 1090.63984338 671.50869044 1090.63627552 675.14312888 1090.6508823 C721.34526639 1090.82292692 767.75766292 1080.09471008 803.43596745 1049.12863445 C804.21842838 1048.45574383 805.00088932 1047.7828532 805.8070612 1047.08957195 C808.39397196 1044.81309048 810.92008908 1042.48337941 813.43596745 1040.12863445 C814.16855778 1039.45501873 814.16855778 1039.45501873 814.91594791 1038.76779461 C847.87543773 1008.26284553 867.44607206 963.64391371 870.43596745 919.12863445 C870.56862842 914.80765369 870.57396911 910.49037254 870.56739521 906.16759205 C870.56944784 904.89997615 870.57150048 903.63236024 870.57361531 902.32633173 C870.57914254 898.82232966 870.57851685 895.31835221 870.57683772 891.81434719 C870.57610307 887.99652118 870.58113786 884.17870191 870.58541274 880.36087883 C870.59297339 872.79516708 870.59518481 865.2294624 870.5957418 857.66374727 C870.59665735 848.59862278 870.60333057 839.53350478 870.61008862 830.4683831 C870.62613117 808.56101796 870.63204989 786.65365353 870.63683737 764.74628357 C870.63917503 754.37822678 870.64277787 744.01017054 870.64653275 733.64211418 C870.65936662 698.13578609 870.67008601 662.6294583 870.67353535 627.12312794 C870.67375698 624.89521231 870.67397876 622.66729668 870.6742007 620.43938106 C870.67442134 618.20615641 870.67464182 615.97293176 870.67486215 613.73970711 C870.67530469 609.25964904 870.67575181 604.77959096 870.67620182 600.29953289 C870.67636591 598.63334819 870.67636591 598.63334819 870.67653331 596.93350319 C870.68016326 560.92294117 870.69608182 524.91239929 870.71939218 488.90184499 C870.74400497 450.80947444 870.75770885 412.7171154 870.75890326 374.62473667 C870.75907471 370.44072175 870.75929014 366.25670683 870.7595377 362.07269192 C870.75959347 361.0425059 870.75964923 360.01231987 870.75970669 358.95091609 C870.76085586 342.39440088 870.77186637 325.83790639 870.78642475 309.28139817 C870.80081264 292.63048618 870.8040138 275.97960067 870.79598477 259.32868417 C870.79153937 249.44606808 870.7953454 239.56353764 870.81122328 229.68093287 C870.82101386 223.06704606 870.81975634 216.45321888 870.80978705 209.83933255 C870.80442429 206.0791521 870.80358914 202.31913543 870.81629577 198.55896892 C870.87970975 178.54642714 870.05157412 159.05113192 864.81096745 139.62863445 C864.43355412 138.21300213 864.43355412 138.21300213 864.04851627 136.76877117 C861.16371062 126.45840529 857.05592292 116.7690971 852.43596745 107.12863445 C852.07631901 106.37356609 851.71667057 105.61849773 851.3461237 104.84054852 C842.91864966 87.42222534 831.48396855 72.3388057 818.43596745 58.12863445 C817.28354557 56.86793133 817.28354557 56.86793133 816.10784245 55.58175945 C790.14273326 28.46264541 754.03164577 11.43983436 717.43596745 5.12863445 C716.42907084 4.95359457 715.42217424 4.77855469 714.38476562 4.59821057 C701.09026812 2.62302494 687.76445924 2.84500458 674.35282259 2.87169934 C670.65791345 2.87681598 666.96302083 2.87023595 663.26811409 2.86521268 C656.80505355 2.85801792 650.34202647 2.85819075 643.87896442 2.863307 C634.26791199 2.87089444 624.65688761 2.86699284 615.04583535 2.86089038 C597.87718296 2.85037455 580.70854548 2.85126545 563.53989169 2.85704821 C548.51510586 2.86208388 533.49032548 2.8633906 518.46553898 2.86100292 C517.46801843 2.86085015 516.47049789 2.86069738 515.44274945 2.86053998 C511.39325437 2.85991728 507.3437593 2.85928048 503.29426423 2.85862045 C465.32473373 2.85250562 427.35521271 2.85804437 389.38568367 2.86881425 C355.66904141 2.8783051 321.95241426 2.87745583 288.23577213 2.86789227 C250.33466294 2.85717767 212.43356213 2.85293932 174.53245163 2.85911679 C170.49043306 2.85975821 166.44841449 2.86038389 162.40639591 2.86100292 C161.41118404 2.86116108 160.41597217 2.86131923 159.39060236 2.86148218 C144.37708609 2.86375492 129.36357589 2.86110068 114.35006046 2.85604382 C97.27509688 2.85032121 80.20015051 2.85176371 63.12518907 2.8626053 C53.57478333 2.86846959 44.02441488 2.86887319 34.47401013 2.86131295 C28.08812016 2.85681627 21.70225997 2.8596408 15.3163744 2.86832249 C11.68243132 2.87306249 8.04856213 2.87474359 4.41462147 2.86751053 C-9.38988658 2.84201897 -22.92226064 2.83575916 -36.56403255 5.12863445 Z " fill="#AE0000" transform="translate(285.56403255462646,75.87136554718018)"/>
<path d="M0 0 C1.20040067 -0.00175304 2.40080135 -0.00350607 3.6375778 -0.00531223 C6.94376418 -0.00913915 10.24989434 -0.00855538 13.55607824 -0.00603446 C17.16294609 -0.00439038 20.76980825 -0.00855132 24.37667423 -0.01194364 C30.68998406 -0.01708145 37.00328623 -0.01851766 43.31659794 -0.01748753 C52.70534962 -0.01595934 62.09409286 -0.02013158 71.4828429 -0.02536215 C89.23017928 -0.03502339 106.97751278 -0.03784595 124.72485148 -0.03841921 C138.43430847 -0.03887914 152.14376432 -0.04093953 165.85322094 -0.04411983 C169.80269291 -0.04501741 173.75216488 -0.04590723 177.70163685 -0.04679471 C179.17451647 -0.04712628 179.17451647 -0.04712628 180.67715124 -0.04746456 C208.29033939 -0.05361724 235.90352714 -0.05756528 263.516716 -0.05712128 C264.55740233 -0.0571057 265.59808866 -0.05709012 266.67031094 -0.05707407 C271.94465881 -0.05699096 277.21900668 -0.05689192 282.49335455 -0.05678936 C283.5408132 -0.05676942 284.58827184 -0.05674947 285.66747166 -0.05672892 C287.78568862 -0.05668848 289.90390559 -0.05664669 292.02212255 -0.05660353 C324.96630899 -0.05599099 357.91048513 -0.06349395 390.85466862 -0.07717609 C427.88893639 -0.09255066 464.9231974 -0.10114147 501.95746857 -0.10021287 C505.90976973 -0.10013824 509.8620709 -0.10008954 513.81437206 -0.10005856 C514.78748849 -0.1000469 515.76060492 -0.10003525 516.76320972 -0.10002324 C532.39515803 -0.09999252 548.02709737 -0.10636718 563.65904301 -0.11499082 C579.38219312 -0.1234851 595.10533017 -0.1244434 610.82848131 -0.1178815 C620.15765527 -0.11419756 629.48678944 -0.1159835 638.81595916 -0.12582384 C645.06214417 -0.131853 651.30830056 -0.13049599 657.5544843 -0.12335334 C661.10376867 -0.11949642 664.65297642 -0.11862406 668.20225518 -0.12681069 C687.65827167 -0.16291878 707.3453189 -0.11373189 726.43596745 4.12863445 C727.24034245 4.29363445 728.04471745 4.45863445 728.87346745 4.62863445 C733.17197823 5.53358409 737.29354431 6.64161076 741.43596745 8.12863445 C741.10596745 8.78863445 740.77596745 9.44863445 740.43596745 10.12863445 C733.10365756 9.29953934 725.9036806 7.96426252 718.65667057 6.58957195 C717.26544987 6.33047039 717.26544987 6.33047039 715.8461237 6.06613445 C715.02249332 5.91015789 714.19886295 5.75418133 713.35027409 5.5934782 C705.21822495 4.29638333 697.31874159 3.98504824 689.0974884 4 C687.87289155 3.99824696 686.64829469 3.99649393 685.38658884 3.99468777 C681.99393565 3.99084325 678.60133682 3.99145346 675.20868594 3.99396554 C671.51512808 3.99560261 667.8215759 3.99145445 664.12801987 3.98805636 C657.65647895 3.98290737 651.18494551 3.98148429 644.71340275 3.98251247 C635.08962107 3.98403774 625.46584766 3.97987488 615.84206759 3.97463785 C597.65269062 3.96496621 579.46331646 3.96215367 561.27393722 3.96158079 C547.22585088 3.96112124 533.17776565 3.95906284 519.12967968 3.95588017 C515.0858207 3.95498262 511.04196171 3.9540928 506.99810272 3.95320529 C505.99277965 3.95298424 504.98745657 3.95276319 503.95166916 3.95253544 C475.67259573 3.94638101 447.39352268 3.9424349 419.11444855 3.94287872 C417.51510735 3.94290209 417.51510735 3.94290209 415.88345622 3.94292593 C410.47939248 3.94300904 405.07532874 3.94310808 399.671265 3.94321064 C398.59800278 3.94323058 397.52474055 3.94325053 396.41895523 3.94327108 C394.24855656 3.94331152 392.07815789 3.94335331 389.90775922 3.94339647 C356.14526638 3.94400913 322.38278359 3.93650452 288.62029362 3.92282391 C250.68590931 3.90745916 212.7515316 3.89885793 174.81714398 3.89978713 C170.77108451 3.89986176 166.72502504 3.89991047 162.67896557 3.89994144 C161.68272819 3.8999531 160.68649082 3.89996475 159.66006443 3.89997676 C143.63618151 3.90000752 127.61230732 3.8936248 111.58842699 3.88500918 C95.47954123 3.87652709 79.37066821 3.8755471 63.26178145 3.8821185 C53.69585752 3.88581053 44.12997237 3.88399217 34.56405257 3.87417616 C28.16757314 3.86816794 21.77112173 3.86948099 15.37464357 3.87664666 C11.7345266 3.88052107 8.09448456 3.88132441 4.45437293 3.87318931 C-9.36335395 3.8442863 -22.9093399 3.83123303 -36.56403255 6.12863445 C-38.32287942 6.3818035 -40.08193779 6.63351667 -41.8413763 6.8825407 C-69.85945839 11.52180288 -97.31048226 23.42060884 -119.56403255 41.12863445 C-120.0960931 41.54935223 -120.62815365 41.97007 -121.17633724 42.4035368 C-158.51565093 72.16983809 -185.12960885 115.87926303 -190.87711298 163.73547799 C-192.47080846 179.33820633 -192.85529649 194.84853422 -192.83577633 210.52058697 C-192.84007486 212.98659583 -192.84524207 215.45260329 -192.85119098 217.91860873 C-192.86207016 223.23232803 -192.86698486 228.54600031 -192.86636066 233.85972691 C-192.86547294 241.76080333 -192.87611249 249.66183645 -192.88898209 257.56290098 C-192.91034469 270.8608555 -192.92277917 284.15880377 -192.93012333 297.4567728 C-192.93744542 310.6080837 -192.949326 323.75937866 -192.96703053 336.91067982 C-192.96813427 337.73098858 -192.96923801 338.55129735 -192.9703752 339.39646395 C-192.97601178 343.5630849 -192.98173948 347.72970572 -192.98750924 351.89632649 C-193.02819339 381.34460565 -193.06054631 410.79288832 -193.08722591 440.24118328 C-193.08883917 442.01855723 -193.09045261 443.79593119 -193.09206622 445.57330514 C-193.09286537 446.45397325 -193.09366452 447.33464136 -193.09448788 448.24199639 C-193.098532 452.69818694 -193.10258036 457.1543775 -193.10663509 461.61056805 C-193.10743829 462.4943363 -193.10824149 463.37810456 -193.10906902 464.28865367 C-193.12781053 484.86397813 -193.14906406 505.43929973 -193.17121029 526.01462078 C-193.17215823 526.89715625 -193.17310617 527.77969171 -193.17408284 528.68897067 C-193.19573496 548.82661641 -193.21856271 568.96426036 -193.24374199 589.10190201 C-193.24479784 589.94729806 -193.24585369 590.79269412 -193.24694154 591.66370823 C-193.25644742 599.26639047 -193.2660019 606.86907264 -193.27580857 614.4717545 C-193.30027544 633.44202629 -193.3217928 652.41229374 -193.33608027 671.38257615 C-193.34603198 684.58243392 -193.35915931 697.78228484 -193.37572736 710.982136 C-193.38544875 718.83161611 -193.3922759 726.68108713 -193.39512334 734.5305728 C-193.39753733 740.37453056 -193.40506177 746.21847417 -193.41464042 752.06242485 C-193.41770207 754.43855856 -193.41903649 756.81469519 -193.41855211 759.19083082 C-193.41812786 762.39775487 -193.42372587 765.60461083 -193.43095398 768.81152534 C-193.42935962 769.75341484 -193.42776525 770.69530433 -193.42612258 771.66573593 C-193.4498954 778.0144973 -193.4498954 778.0144973 -194.56403255 779.12863445 C-194.6877258 781.12214875 -194.74199645 783.11999916 -194.76935482 785.11715984 C-194.78930004 786.39841244 -194.80924526 787.67966503 -194.82979488 788.99974346 C-194.84678053 790.40859129 -194.86365929 791.81744041 -194.8804388 793.2262907 C-194.90100171 794.6597635 -194.921998 796.09323014 -194.94341183 797.52669048 C-194.99870115 801.30616565 -195.04808001 805.08569615 -195.09625912 808.86526775 C-195.14642421 812.719383 -195.20213627 816.57341754 -195.25739193 820.42746258 C-195.36505734 827.99445159 -195.46648352 835.56150755 -195.56403255 843.12863445 C-195.89403255 843.12863445 -196.22403255 843.12863445 -196.56403255 843.12863445 C-196.61772919 741.7128691 -196.64481198 640.29710516 -196.56403255 454.12863445 C-196.56339554 453.13723379 -196.56275852 452.14583312 -196.5621022 451.12439001 C-196.53370279 407.09594701 -196.49003401 363.06759861 -196.37852097 319.03927803 C-196.37275059 316.75451148 -196.36698303 314.46974491 -196.36122412 312.18497833 C-196.35741957 310.67615486 -196.35360153 309.16733144 -196.34976982 307.65850804 C-196.32170137 296.51255662 -196.30444479 285.36662522 -196.29331112 274.22064495 C-196.28077492 261.68845313 -196.25423223 249.1563867 -196.2095198 236.62426656 C-196.18744098 230.35339342 -196.17107989 224.08266892 -196.17213154 217.81175327 C-196.17118002 156.06638087 -185.47158582 103.31308389 -141.56403255 57.12863445 C-141.05034115 56.58626141 -140.53664974 56.04388836 -140.00739193 55.48507977 C-103.31725904 17.00794287 -52.43909436 -0.09867815 0 0 Z " fill="#B30000" transform="translate(285.56403255462646,75.87136554718018)"/>
<path d="M0 0 C0.33 0 0.66 0 1 0 C1.00146656 0.74155114 1.00293312 1.48310228 1.00444412 2.24712467 C1.0417031 20.39777332 1.10096688 38.54823253 1.18390274 56.69873142 C1.22349647 65.47664711 1.25598778 74.25447569 1.27099609 83.0324707 C1.2841157 90.69477695 1.31133803 98.35688996 1.35461307 106.01908726 C1.3769995 110.06585182 1.39292469 114.11238015 1.39188385 118.15921211 C1.39301782 167.38475631 13.7515228 213.73416199 47.88671875 250.69921875 C49.79595605 252.77785234 51.61976644 254.90420746 53.4375 257.0625 C81.93202514 289.51640107 127.65192154 307.88740612 170 311 C185.6444635 311.80591026 201.35216109 311.57203201 217.01158345 311.54880548 C223.36088825 311.54381176 229.71013503 311.56200557 236.05941772 311.57722473 C247.03009176 311.60042181 258.00069814 311.6094303 268.97139549 311.60811615 C280.46233492 311.6068006 291.95322088 311.6138222 303.44414711 311.63169098 C304.52063412 311.63335806 304.52063412 311.63335806 305.61886835 311.63505882 C309.26430996 311.64074684 312.90975133 311.64658104 316.55519263 311.65247145 C342.29598586 311.6938022 368.0367657 311.71687388 393.77758789 311.72900391 C418.76588453 311.74082161 443.75415165 311.76103673 468.74243164 311.79248047 C469.90022736 311.7939324 469.90022736 311.7939324 471.08141289 311.79541365 C478.83362791 311.80514447 486.58584272 311.81504449 494.33805737 311.82506842 C510.12660026 311.84547979 525.91514445 311.86476265 541.70368958 311.88336182 C542.4294315 311.88421815 543.15517342 311.88507447 543.90290752 311.88595675 C592.26858918 311.94289593 640.63429311 311.9734556 689 312 C689 312.66 689 313.32 689 314 C753.02 314 817.04 314 883 314 C883 314.33 883 314.66 883 315 C816.30278265 315.03429505 749.60556425 315.0660918 682.90834045 315.08468628 C681.92047027 315.08496239 680.93260009 315.08523851 679.91479446 315.08552299 C658.4433186 315.09150945 636.97184265 315.09704972 615.50036656 315.10213066 C604.9700523 315.10462523 594.43973806 315.10721835 583.90942383 315.10986328 C582.86155687 315.1101248 581.81368992 315.11038632 580.73406942 315.11065576 C546.79805875 315.11917139 512.86205477 315.13418873 478.92604815 315.15259444 C444.03888794 315.17148156 409.15173143 315.18377597 374.2645662 315.18782998 C369.33175325 315.18840625 364.39894032 315.18905752 359.4661274 315.18975449 C358.00992131 315.18995676 358.00992131 315.18995676 356.52429691 315.19016311 C340.92623396 315.19252228 325.32818246 315.20178686 309.73012416 315.21366407 C294.03113658 315.22546966 278.33216031 315.22992819 262.63316845 315.22700275 C253.31760037 315.22548698 244.00207382 315.22948877 234.68651327 315.24159509 C228.44766311 315.24914552 222.20883986 315.24929206 215.96998777 315.24366363 C212.42548133 315.24067063 208.88105289 315.24066265 205.33655512 315.24976636 C157.68594643 315.35059501 113.08145436 308.01943813 74 279 C73.42701172 278.57509277 72.85402344 278.15018555 72.26367188 277.71240234 C60.55023717 268.98518631 60.55023717 268.98518631 56 264 C56 263.34 56 262.68 56 262 C55.45730469 261.79117187 54.91460937 261.58234375 54.35546875 261.3671875 C51.11000227 259.48341757 48.80494437 256.87984892 46.3125 254.125 C45.78575684 253.54782227 45.25901367 252.97064453 44.71630859 252.37597656 C39.75044561 246.85768202 35.28958837 241.06193326 31 235 C30.44699219 234.23171875 29.89398438 233.4634375 29.32421875 232.671875 C25.93240463 227.79888106 23.23095444 222.71634823 20.640625 217.37890625 C19.44401083 214.91445089 18.22825801 212.46767356 16.984375 210.02734375 C9.21976017 194.77735198 3.94938759 179.79970707 0.8125 162.9375 C0.64556641 162.05223633 0.47863281 161.16697266 0.30664062 160.25488281 C-1.84761901 148.15822739 -2.15246274 136.05359527 -2.1328125 123.79296875 C-2.13387469 122.32586644 -2.13526227 120.85876433 -2.13694763 119.3916626 C-2.13973648 115.46875856 -2.13538096 111.54589565 -2.12877274 107.62299728 C-2.12498534 105.17803649 -2.12292872 102.73307957 -2.12130737 100.28811646 C-2.1031626 77.04035458 -1.94244731 53.79579669 -1.59383392 30.55060196 C-1.56247235 28.4356356 -1.53272505 26.32065116 -1.50323486 24.20565796 C-1.44801496 20.30234387 -1.38322969 16.39922756 -1.31640625 12.49609375 C-1.29968369 11.33619934 -1.28296112 10.17630493 -1.26573181 8.98126221 C-1.24579666 7.93613464 -1.22586151 6.89100708 -1.20532227 5.81420898 C-1.18977798 4.90267563 -1.1742337 3.99114227 -1.15821838 3.05198669 C-1 1 -1 1 0 0 Z " fill="#AA0000" transform="translate(91,854)"/>
<path d="M0 0 C3.07017375 -0.13076666 5.45522137 0.01495346 8.296875 1.22265625 C9.796875 3.16015625 9.796875 3.16015625 10.359375 6.53515625 C9.796875 10.16015625 9.796875 10.16015625 7.984375 13.09765625 C3.35003752 16.09634521 -0.83128452 15.5835062 -6.203125 15.16015625 C-6.203125 15.82015625 -6.203125 16.48015625 -6.203125 17.16015625 C-6.85796875 17.28390625 -7.5128125 17.40765625 -8.1875 17.53515625 C-20.4922465 20.31588992 -31.32405575 27.74434132 -38.26171875 38.2890625 C-43.66284149 47.12243188 -47.19028433 56.13041308 -49.328125 66.28515625 C-50.203125 70.16015625 -50.203125 70.16015625 -52.203125 72.16015625 C-58.31127547 72.83883964 -58.31127547 72.83883964 -61.42578125 70.46875 C-64.23607076 66.81846187 -63.41179917 64.04628444 -62.875 59.64453125 C-59.21666699 40.6722461 -49.59636613 23.97697858 -34.203125 12.16015625 C-23.31647971 4.84410169 -13.04850221 0.94856133 0 0 Z " fill="#BA1B22" transform="translate(521.203125,332.83984375)"/>
<path d="M0 0 C69.63 0 139.26 0 211 0 C211 0.66 211 1.32 211 2 C275.02 2 339.04 2 405 2 C405 2.33 405 2.66 405 3 C179.28 3 -46.44 3 -279 3 C-279 2.67 -279 2.34 -279 2 C-186.93 2 -94.86 2 0 2 C0 1.34 0 0.68 0 0 Z " fill="#900000" transform="translate(569,1166)"/>
<path d="M0 0 C0.33 0 0.66 0 1 0 C1.33 23.1 1.66 46.2 2 70 C2.33 70 2.66 70 3 70 C3.02278968 102.34107582 3.04049782 134.68214936 3.05106533 167.02323132 C3.05231611 170.83734629 3.05361042 174.65146123 3.05493164 178.46557617 C3.05519395 179.22493001 3.05545626 179.98428386 3.05572652 180.76664842 C3.06008337 193.07824169 3.06797099 205.38983032 3.0771528 217.70142084 C3.08648893 230.3247939 3.09205552 242.94816452 3.09408849 255.57154089 C3.09546381 263.36714149 3.09981484 271.16272896 3.10791647 278.95832551 C3.11380411 284.92586162 3.11445907 290.89338632 3.11310768 296.86092567 C3.11338421 299.31643124 3.11539195 301.77193727 3.11920547 304.22743988 C3.12413578 307.56395311 3.12300075 310.90040883 3.12025452 314.23692322 C3.12462378 315.71500526 3.12462378 315.71500526 3.12908131 317.22294754 C3.12709026 318.10972106 3.12509921 318.99649459 3.12304783 319.91014004 C3.12342755 320.68135203 3.12380727 321.45256402 3.1241985 322.24714607 C3 324 3 324 2 325 C1.87630675 326.9935143 1.8220361 328.9913647 1.79467773 330.98852539 C1.77473251 332.26977798 1.75478729 333.55103058 1.73423767 334.87110901 C1.71725203 336.27995684 1.70037327 337.68880595 1.68359375 339.09765625 C1.66303085 340.53112905 1.64203456 341.96459569 1.62062073 343.39805603 C1.56533141 347.1775312 1.51595255 350.9570617 1.46777344 354.7366333 C1.41760835 358.59074855 1.36189629 362.44478309 1.30664062 366.29882812 C1.19897521 373.86581714 1.09754903 381.4328731 1 389 C0.67 389 0.34 389 0 389 C0 260.63 0 132.26 0 0 Z " fill="#CD0000" transform="translate(89,530)"/>
<path d="M0 0 C1.66796875 1.66015625 1.66796875 1.66015625 2.23046875 4.53515625 C1.47084099 8.75531046 0.08401603 10.11629126 -3.33203125 12.66015625 C-5.6605799 13.02541878 -7.99502087 13.35366309 -10.33203125 13.66015625 C-17.93847116 16.30587448 -23.64660989 20.37654243 -27.33203125 27.66015625 C-28.03035013 30.78297553 -28.44340647 33.86021594 -28.828125 37.03515625 C-29.33203125 39.66015625 -29.33203125 39.66015625 -31.51953125 42.47265625 C-35.24882132 44.04724539 -37.46920406 43.75340923 -41.33203125 42.66015625 C-44.53148939 37.86096904 -44.1416146 33.263991 -43.33203125 27.66015625 C-39.6343886 17.05254388 -33.36117687 8.12128218 -23.64453125 2.22265625 C-16.69891869 -1.05357609 -7.2288499 -4.15325882 0 0 Z " fill="#B71A22" transform="translate(533.33203125,368.33984375)"/>
<path d="M0 0 C6.64508541 0.49222855 11.9299429 2.3127293 18 5 C18.91700684 5.40081787 19.83401367 5.80163574 20.77880859 6.21459961 C33.43498879 11.851432 45.02669142 18.51821559 56 27 C56.70769531 27.515625 57.41539063 28.03125 58.14453125 28.5625 C96.07732503 56.71299631 123.91468943 101.93624876 130.97314453 148.78735352 C134.23602283 175.16048614 133.34164421 201.85253198 133.20599365 228.36956787 C133.17641525 234.44195673 133.16442951 240.51439291 133.15097082 246.58683467 C133.11999041 260.39131885 133.06756202 274.19564962 133 288 C132.67 288 132.34 288 132 288 C131.96241577 286.34230591 131.96241577 286.34230591 131.92407227 284.65112305 C131.82993491 280.55285956 131.72972959 276.45476306 131.62768555 272.35668945 C131.58436066 270.58264063 131.54268381 268.80855077 131.50268555 267.03442383 C131.4449238 264.48506295 131.38124638 261.9359082 131.31640625 259.38671875 C131.29133751 258.19594978 131.29133751 258.19594978 131.26576233 256.98112488 C131.17882282 253.75316923 131.02749634 251.08248901 130 248 C129.89539666 245.38824678 129.84591044 242.80208987 129.84228516 240.18994141 C129.83720444 239.39418198 129.83212372 238.59842255 129.82688904 237.77854919 C129.81618094 236.04671964 129.80756248 234.31487622 129.80076981 232.58302689 C129.78893297 229.82134208 129.76945785 227.05981033 129.74765015 224.29818726 C129.68626722 216.44396262 129.63244924 208.58974691 129.59863281 200.73535156 C129.57737854 195.92711837 129.54181997 191.11915399 129.49787521 186.31107712 C129.48393158 184.49751384 129.47504312 182.68390287 129.47182083 180.87028885 C129.43848323 163.8713173 127.81674531 146.96179388 123.375 130.5 C123.12339111 129.55624512 122.87178223 128.61249023 122.61254883 127.64013672 C119.72774317 117.32977083 115.61995548 107.64046265 111 98 C110.46052734 96.86739746 110.46052734 96.86739746 109.91015625 95.71191406 C101.47834056 78.28461735 90.03334308 63.23348349 77 49 C76.30519531 48.23300781 75.61039063 47.46601563 74.89453125 46.67578125 C54.85633481 25.61217603 27.22209051 11.11551145 0 2 C0 1.34 0 0.68 0 0 Z " fill="#AE0002" transform="translate(1026,85)"/>
<path d="M0 0 C0.33 0 0.66 0 1 0 C2.0033741 15.69434415 2.1456913 31.34560465 2.13072467 47.06852937 C2.12842802 50.65047526 2.1319714 54.23241663 2.13470459 57.81436157 C2.13911932 64.80947077 2.13820421 71.80456916 2.13529195 78.79967876 C2.13301692 84.50536305 2.13273442 90.21104435 2.13381577 95.91672897 C2.13404561 97.14338729 2.13404561 97.14338729 2.13428011 98.39482658 C2.13459991 100.05733519 2.13492412 101.71984379 2.1352527 103.3823524 C2.13809596 118.93042763 2.13484068 134.47849694 2.12945233 150.0265712 C2.12500387 163.26983301 2.12574624 176.51308602 2.13037109 189.75634766 C2.13576955 205.22150103 2.13780211 220.68664919 2.13475883 236.15180337 C2.13444038 237.81431031 2.134126 239.47681725 2.13381577 241.13932419 C2.13366149 241.9567476 2.13350721 242.77417102 2.13334826 243.61636484 C2.13249738 249.28153321 2.133933 254.94669815 2.13629532 260.611866 C2.14921492 294.41839535 2.09809236 328.20695077 1 362 C0.67 362 0.34 362 0 362 C-0.60863828 270.71388401 -1.10709087 179.428584 -1.12283063 88.14019293 C-1.12412037 81.16152441 -1.12787816 74.1828601 -1.13256836 67.20419312 C-1.13863994 57.82554674 -1.13871069 48.44691488 -1.13431931 39.06826782 C-1.13284573 35.61712248 -1.13354567 32.16598836 -1.13615799 28.71484375 C-1.13900654 24.75474883 -1.13714809 20.79468585 -1.13136959 16.83459437 C-1.13006475 15.39594087 -1.13046707 13.95728469 -1.13267231 12.51863229 C-1.13537603 10.57611776 -1.13139043 8.63359723 -1.12698364 6.69108582 C-1.1264181 5.06703465 -1.1264181 5.06703465 -1.12584114 3.41017437 C-1 1 -1 1 0 0 Z " fill="#C10105" transform="translate(1157,632)"/>
<path d="M0 0 C0.33 0 0.66 0 1 0 C1.9205948 15.7156121 2.13374442 31.3733919 2.09765625 47.11328125 C2.09578558 49.54949413 2.09436475 51.98570739 2.09336853 54.42192078 C2.08959437 60.75921715 2.0798092 67.09648973 2.06866455 73.43377686 C2.05833922 79.93045734 2.05384735 86.42714176 2.04882812 92.92382812 C2.03818107 105.61589543 2.02136679 118.30794643 2 131 C1.67 131 1.34 131 1 131 C0.67 124.73 0.34 118.46 0 112 C-0.33 112 -0.66 112 -1 112 C-1.02335969 100.49776296 -1.0410338 88.99553174 -1.05181217 77.49327564 C-1.05699002 72.15004947 -1.0639928 66.80683975 -1.07543945 61.46362305 C-1.08645236 56.28940867 -1.09231502 51.11520993 -1.09487724 45.94098473 C-1.09669885 43.98504071 -1.10025413 42.02909737 -1.10573006 40.07316017 C-1.1416593 26.68457784 -0.75312009 13.36770815 0 0 Z " fill="#9D0001" transform="translate(1157,521)"/>
<path d="M0 0 C0.66 0.33 1.32 0.66 2 1 C2 38.95 2 76.9 2 116 C1.67 116 1.34 116 1 116 C0.97494385 114.89487061 0.9498877 113.78974121 0.92407227 112.65112305 C0.82993491 108.55285956 0.72972959 104.45476306 0.62768555 100.35668945 C0.58436066 98.58264063 0.54268381 96.80855077 0.50268555 95.03442383 C0.4449238 92.48506295 0.38124638 89.9359082 0.31640625 87.38671875 C0.29969376 86.59287277 0.28298126 85.79902679 0.26576233 84.98112488 C0.17882282 81.75316923 0.02749634 79.08248901 -1 76 C-1.09486417 73.74197736 -1.12794398 71.48120542 -1.12939453 69.22119141 C-1.13114685 68.53628128 -1.13289917 67.85137115 -1.13470459 67.14570618 C-1.13910654 64.88096585 -1.13619029 62.61630362 -1.1328125 60.3515625 C-1.13348617 58.77599065 -1.13445673 57.2004189 -1.13571167 55.62484741 C-1.13718653 52.32117728 -1.13504146 49.01753418 -1.13037109 45.71386719 C-1.12468329 41.48488008 -1.12794813 37.25595657 -1.13394356 33.02697182 C-1.13756286 29.77214075 -1.13640412 26.51732466 -1.13381577 23.26249313 C-1.1331498 21.70361702 -1.13396335 20.14473953 -1.13629532 18.58586502 C-1.13884327 16.40307278 -1.13495068 14.22038235 -1.12939453 12.03759766 C-1.12859894 10.79644196 -1.12780334 9.55528625 -1.12698364 8.27651978 C-1.01496618 5.38616782 -0.67006981 2.80627848 0 0 Z " fill="#9C0000" transform="translate(1157,257)"/>
<path d="M0 0 C0.33 0 0.66 0 1 0 C1 23.43 1 46.86 1 71 C0.01 71 -0.98 71 -2 71 C-2.04631323 62.18573089 -2.08186401 53.37150358 -2.10362434 44.5571394 C-2.1140675 40.46440017 -2.12823636 36.3717441 -2.15087891 32.27905273 C-2.17258839 28.33036289 -2.18456462 24.38175311 -2.18975449 20.43300819 C-2.19345366 18.92549695 -2.20067711 17.41799014 -2.21146011 15.91051292 C-2.22595004 13.80116637 -2.22797902 11.69215188 -2.22705078 9.58276367 C-2.231492 8.38141281 -2.23593323 7.18006195 -2.24050903 5.94230652 C-2 3 -2 3 0 0 Z " fill="#C70001" transform="translate(1158,471)"/>
<path d="M0 0 C0.99 0 1.98 0 3 0 C3.07408587 4.09333905 3.1285704 8.18641933 3.16479492 12.28027344 C3.17989358 13.67324622 3.20037444 15.06617138 3.22631836 16.45898438 C3.26265122 18.45942885 3.27811192 20.46021827 3.29296875 22.4609375 C3.3086792 23.66540527 3.32438965 24.86987305 3.34057617 26.11083984 C3.22818604 27.0642627 3.1157959 28.01768555 3 29 C2.01 29.66 1.02 30.32 0 31 C0 20.77 0 10.54 0 0 Z " fill="#9D0000" transform="translate(1156,394)"/>
<path d="M0 0 C0.33 0 0.66 0 1 0 C1.87576778 15.01316191 2.12761853 29.96261038 2 45 C1.34 44.67 0.68 44.34 0 44 C-2.80272129 29.8444836 -0.78481494 14.31034903 0 0 Z " fill="#AF0001" transform="translate(1157,521)"/>
<path d="M0 0 C-0.33 0.66 -0.66 1.32 -1 2 C-2.65 2 -4.3 2 -6 2 C-6 2.66 -6 3.32 -6 4 C-17.33712984 8.59225513 -17.33712984 8.59225513 -24 8 C-20.38730186 4.8765214 -16.41211196 3.39654903 -12 1.75 C-11.2884375 1.46898437 -10.576875 1.18796875 -9.84375 0.8984375 C-6.1065259 -0.50999397 -3.80632162 -1.2273703 0 0 Z " fill="#C33136" transform="translate(638,501)"/>
<path d="M0 0 C0.33 0 0.66 0 1 0 C1 9.57 1 19.14 1 29 C0.34 28.67 -0.32 28.34 -1 28 C-2.48785577 20.51861202 -2.11923877 12.59153502 -2 5 C-1.67 5 -1.34 5 -1 5 C-0.67 3.35 -0.34 1.7 0 0 Z " fill="#D60001" transform="translate(1158,691)"/>
<path d="M0 0 C2 2 2 2 2.1953125 5.9140625 C2.18200376 7.48449351 2.15813602 9.05486221 2.125 10.625 C2.11597656 11.42679687 2.10695313 12.22859375 2.09765625 13.0546875 C2.07406223 15.03658523 2.03819065 17.01832981 2 19 C1.01 18.67 0.02 18.34 -1 18 C-1.02707139 15.75006641 -1.04642829 13.50003905 -1.0625 11.25 C-1.07410156 9.99703125 -1.08570313 8.7440625 -1.09765625 7.453125 C-1.02021027 4.71463499 -0.82780815 2.58119707 0 0 Z " fill="#BF0001" transform="translate(1157,421)"/>
<path d="M0 0 C7.92 0.33 15.84 0.66 24 1 C23.67 1.66 23.34 2.32 23 3 C19.91684615 3.08733513 16.83401173 3.14050127 13.75 3.1875 C12.87730469 3.21263672 12.00460937 3.23777344 11.10546875 3.26367188 C9.83896484 3.27817383 9.83896484 3.27817383 8.546875 3.29296875 C7.38430176 3.31653442 7.38430176 3.31653442 6.19824219 3.34057617 C4 3 4 3 0 0 Z " fill="#C12B2E" transform="translate(630,482)"/>
<path d="M0 0 C0.33 0 0.66 0 1 0 C1 6.93 1 13.86 1 21 C0.01 21 -0.98 21 -2 21 C-1.85845864 18.43719792 -1.71191438 15.87484515 -1.5625 13.3125 C-1.52318359 12.59126953 -1.48386719 11.87003906 -1.44335938 11.12695312 C-1.21814322 7.33292718 -0.87160695 3.71348508 0 0 Z " fill="#C30001" transform="translate(1158,373)"/>
<path d="M0 0 C1.051875 -0.01417969 2.10375 -0.02835937 3.1875 -0.04296875 C6 0.1875 6 0.1875 9 2.1875 C5.93466836 3.72016582 2.73245728 3.29026471 -0.625 3.25 C-1.33140625 3.24548828 -2.0378125 3.24097656 -2.765625 3.23632812 C-4.51045275 3.22453875 -6.255237 3.20660324 -8 3.1875 C-8.33 2.5275 -8.66 1.8675 -9 1.1875 C-5.79226388 0.11825463 -3.37015182 0.02065044 0 0 Z " fill="#BB2029" transform="translate(644,359.8125)"/>
<path d="M0 0 C-0.33 0.66 -0.66 1.32 -1 2 C-9.01351491 4.49601284 -9.01351491 4.49601284 -13 3 C-13.33 2.34 -13.66 1.68 -14 1 C-9.27685687 0.22887459 -4.78478822 -0.09764874 0 0 Z " fill="#C1292F" transform="translate(755,982)"/>
<path d="M0 0 C0.33 0 0.66 0 1 0 C1.33 2.64 1.66 5.28 2 8 C-0.35968744 10.09749995 -1.54616994 10.96905704 -4.75 11.1875 C-5.4925 11.125625 -6.235 11.06375 -7 11 C-7 10.34 -7 9.68 -7 9 C-5.02 8.67 -3.04 8.34 -1 8 C-0.67 5.36 -0.34 2.72 0 0 Z " fill="#C2252C" transform="translate(501,401)"/>
<path d="M0 0 C-2.73704754 2.73704754 -5.26044774 3.16182449 -9 4 C-11.2265625 3.55078125 -11.2265625 3.55078125 -13 3 C-4.738041 -1.77676538 -4.738041 -1.77676538 0 0 Z " fill="#C12E33" transform="translate(506,338)"/>
<path d="M0 0 C-1.5 1.5625 -1.5 1.5625 -4 3 C-6.77437543 2.96823234 -9.25286467 2.50364148 -12 2 C-8.09971775 -0.60018816 -4.52565431 -0.15085514 0 0 Z M-13 3 C-9 4 -9 4 -9 4 Z " fill="#C0242B" transform="translate(691,994)"/>
<path d="M0 0 C2.11044382 3.16566573 2.75552077 5.51197415 3.625 9.1875 C3.88539063 10.27417969 4.14578125 11.36085938 4.4140625 12.48046875 C4.60742188 13.31191406 4.80078125 14.14335937 5 15 C4.34 15 3.68 15 3 15 C3 13.35 3 11.7 3 10 C2.34 10 1.68 10 1 10 C-0.1577506 6.52674819 -0.06866652 3.63932552 0 0 Z " fill="#C84149" transform="translate(568,429)"/>
<path d="M0 0 C0.103125 0.639375 0.20625 1.27875 0.3125 1.9375 C0.539375 2.618125 0.76625 3.29875 1 4 C1.99 4.33 2.98 4.66 4 5 C4.66 5.33 5.32 5.66 6 6 C2.62902617 7.49821059 0.79557881 8 -3 8 C-1.125 2.25 -1.125 2.25 0 0 Z " fill="#C94B4F" transform="translate(561,509)"/>
<path d="M0 0 C1.98 0.66 3.96 1.32 6 2 C3.31158141 4.25245881 1.35358125 5.88213958 -2 7 C-1.34 4.69 -0.68 2.38 0 0 Z " fill="#F1D2D3" transform="translate(536,551)"/>
<path d="M0 0 C0.33 0 0.66 0 1 0 C1.22162329 1.62324086 1.42689803 3.248721 1.625 4.875 C1.74101563 5.77992188 1.85703125 6.68484375 1.9765625 7.6171875 C1.98429687 8.40351562 1.99203125 9.18984375 2 10 C1.34 10.66 0.68 11.32 0 12 C-1.1671568 8.49852959 -1.13357453 5.67329964 -1 2 C-0.67 1.34 -0.34 0.68 0 0 Z " fill="#B6040B" transform="translate(93,1009)"/>
<path d="M0 0 C0.66 0.33 1.32 0.66 2 1 C1.5 2.9375 1.5 2.9375 0 5 C-2.69658452 5.68790422 -5.2017019 5.81946464 -8 6 C-5.38485683 3.87961365 -2.80362384 1.86908256 0 0 Z " fill="#C02A2F" transform="translate(583,527)"/>
<path d="M0 0 C0.99 0.33 1.98 0.66 3 1 C3 2.32 3 3.64 3 5 C2.34 5 1.68 5 1 5 C1 6.65 1 8.3 1 10 C0.34 10 -0.32 10 -1 10 C-0.67 6.7 -0.34 3.4 0 0 Z " fill="#BC2229" transform="translate(547,776)"/>
<path d="M0 0 C2.31 0 4.62 0 7 0 C6.01 1.485 6.01 1.485 5 3 C2.375 3.1875 2.375 3.1875 0 3 C0 2.01 0 1.02 0 0 Z M-3 3 C0 4 0 4 0 4 Z " fill="#F5DDDE" transform="translate(515,348)"/>
<path d="M0 0 C2.91227269 3.28804981 4.49701212 5.59885603 5 10 C0.125 5.375 0.125 5.375 -1 2 C-0.67 1.34 -0.34 0.68 0 0 Z " fill="#BC0308" transform="translate(1137,178)"/>
<path d="M0 0 C-2.5654594 2.5654594 -4.47686668 2.54046087 -8 3 C-8 2.01 -8 1.02 -8 0 C-4.71023192 -1.09658936 -3.28696233 -0.79953138 0 0 Z " fill="#F0D3D4" transform="translate(575,494)"/>
<path d="M0 0 C1.90318884 2.85478326 2.4619099 4.41941308 3.125 7.6875 C3.29257812 8.49574219 3.46015625 9.30398438 3.6328125 10.13671875 C3.75398437 10.75160156 3.87515625 11.36648438 4 12 C3.01 11.67 2.02 11.34 1 11 C0.4254048 7.26513121 0 3.78706732 0 0 Z " fill="#C8444B" transform="translate(534,462)"/>
<path d="M0 0 C2.5625 2.25 2.5625 2.25 5 5 C4.67 6.32 4.34 7.64 4 9 C2.35 6.69 0.7 4.38 -1 2 C-0.67 1.34 -0.34 0.68 0 0 Z " fill="#BC2129" transform="translate(595,456)"/>
<path d="M0 0 C0.66 0 1.32 0 2 0 C3.0326802 2.78823655 3.04509293 3.8677274 2.0625 6.75 C1.711875 7.4925 1.36125 8.235 1 9 C0.34 9 -0.32 9 -1 9 C-0.67 6.03 -0.34 3.06 0 0 Z " fill="#BE242C" transform="translate(558,722)"/>
<path d="M0 0 C0.33 0.99 0.66 1.98 1 3 C-2.22791555 5.1519437 -3.28400809 5.20086443 -7 5 C-2.25 1.125 -2.25 1.125 0 0 Z " fill="#C0252A" transform="translate(574,533)"/>
<path d="M0 0 C3.36720387 1.39332574 4.9859524 2.9789286 7 6 C4 6 4 6 1.8125 4.125 C0 2 0 2 0 0 Z " fill="#C12E33" transform="translate(713,520)"/>
<path d="M0 0 C0.66 0.66 1.32 1.32 2 2 C-2.43076923 5.07692308 -2.43076923 5.07692308 -5.3125 4.6875 C-5.869375 4.460625 -6.42625 4.23375 -7 4 C-4.69 2.68 -2.38 1.36 0 0 Z " fill="#C0262D" transform="translate(815,573)"/>
<path d="M0 0 C0.33 0 0.66 0 1 0 C1.33 2.64 1.66 5.28 2 8 C1.34 8 0.68 8 0 8 C-0.33 9.32 -0.66 10.64 -1 12 C-0.67 8.04 -0.34 4.08 0 0 Z " fill="#C84D54" transform="translate(459,389)"/>
<path d="" fill="#FF0000" transform="translate(0,0)"/>
<path d="" fill="#FF0000" transform="translate(0,0)"/>
<path d="" fill="#FF0000" transform="translate(0,0)"/>
</svg>
